<?xml version="1.0" encoding="UTF-8"?>
<svg xmlns="http://www.w3.org/2000/svg" viewBox="0 0 274 196" width="274" height="196">
<path d="M171.03 23C171.31 23.25 171.59 23.5 171.88 23.75C172.08 25.42 172.28 27.08 172.48 28.75C173.65 28.92 174.83 29.08 176 29.25C176.08 30.17 176.17 31.08 176.25 32C176.47 31.67 176.7 31.33 176.92 31C178.65 31.42 180.38 31.83 182.1 32.25C181.94 33.58 181.78 34.92 181.62 36.25C179.98 36.25 178.34 36.25 176.7 36.25C176.55 37.5 176.4 38.74 176.25 39.99C178.42 40.41 180.58 40.83 182.75 41.25C182.69 42.42 182.63 43.58 182.57 44.75C180.15 46.27 172.25 44.73 169.75 43.42C170.18 36.61 170.6 29.81 171.03 23ZM158.5 25.38C158.67 25.44 158.83 25.5 159 25.55C159.05 25.86 159.1 26.18 159.15 26.49C159.01 31.94 158.88 37.4 158.75 42.85C156.75 42.98 154.75 43.12 152.75 43.25C152.62 38.67 152.48 34.08 152.35 29.5C152.56 29.42 152.78 29.33 153 29.25C153 28.58 153 27.92 153 27.25C153.17 27.2 153.33 27.14 153.5 27.09C153.31 27.31 153.12 27.53 152.94 27.75C154.54 27.75 156.14 27.75 157.74 27.75C157.68 27.5 157.62 27.25 157.56 27C157.58 26.83 157.6 26.67 157.62 26.5C157.86 26.42 158.1 26.33 158.34 26.25C158.4 25.96 158.45 25.67 158.5 25.38ZM134.58 29.54C136.28 29.49 137.11 29.2 138.25 30.59C138.47 30.39 138.69 30.2 138.92 30C139.03 30.67 139.14 31.33 139.25 32C139.42 31.67 139.58 31.33 139.75 31C139.83 32.08 139.92 33.17 140 34.25C140.16 34.33 140.33 34.42 140.49 34.5C141.28 36.87 142.23 42.07 141.09 44.25C139.28 44.42 137.46 44.58 135.65 44.75C135.13 40.83 134.62 36.92 134.1 33C134.4 32.75 134.7 32.5 135 32.25C135 31.58 135 30.92 135 30.25C134.86 30.01 134.72 29.78 134.58 29.54ZM110.06 36.5C110.13 36.49 110.19 36.48 110.25 36.47C110.42 36.86 110.58 37.25 110.75 37.64C111.16 37.7 111.56 37.75 111.97 37.8C115.43 37.64 117.94 36.85 120.25 34C124.64 34 124.23 38.07 125.5 37.25C125.31 38.4 124.53 39.78 126.02 39C126.5 40.42 126.97 41.83 127.44 43.25C127.21 43.73 126.98 44.22 126.75 44.7C126.08 44.63 125.42 44.57 124.75 44.5C124.67 44.7 124.58 44.89 124.5 45.09C122.97 44.35 123.06 46.38 121.75 46.99C120.92 44.69 120.08 42.4 119.25 40.11C116.91 40.99 114.57 41.87 112.23 42.75C111.83 45.52 114.29 48.74 112.97 51.25C111.23 51.72 109.49 52.19 107.75 52.66C106.27 46.95 104.8 41.25 103.32 35.54C103.8 34.36 104.27 33.18 104.75 32C105.83 32.25 106.92 32.5 108 32.75C108.17 33.58 108.33 34.42 108.5 35.25C109.02 35.67 109.54 36.08 110.06 36.5ZM177.11 54.28C176.99 55.47 176.87 56.66 176.75 57.86C174.75 57.93 172.75 58.01 170.75 58.09C170.42 63.31 170.08 68.54 169.75 73.76C167.81 73.76 165.86 73.75 163.92 73.75C163.99 70 164.06 66.25 164.13 62.5C165 61.23 165.88 59.96 166.75 58.68C167.58 58.95 168.42 59.21 169.25 59.48C169.54 58.57 169.84 57.66 170.13 56.75C172.17 56.7 174.21 56.66 176.25 56.61C176.54 55.84 176.82 55.06 177.11 54.28ZM111.5 58.08C113.32 57.83 113.82 58.49 114.8 59.93C115.03 60.7 115.27 61.48 115.5 62.25C116.58 63 117.67 63.75 118.75 64.5C119.08 65.17 119.42 65.83 119.75 66.5C120.18 66.29 120.6 66.07 121.03 65.86C121.85 66.66 122.68 67.45 123.5 68.25C123.84 68.23 124.18 68.22 124.52 68.2C124.76 68.63 125.01 69.07 125.25 69.5C125.76 66.96 125.24 64.51 126.75 62.2C127.64 63.28 128.53 64.35 129.42 65.43C129.44 67.37 129.47 69.31 129.5 71.25C129.71 71.65 129.92 72.05 130.14 72.45C129.76 73.55 129.39 74.65 129.02 75.75C130.05 78.22 129.98 79.62 130.37 82.25C130.77 81.9 131.17 81.56 131.58 81.21C132.39 81.72 133.19 82.24 134 82.75C134.17 82.79 134.33 82.84 134.5 82.88C134.39 83.28 134.28 83.67 134.17 84.07C133.69 85.16 133.22 86.26 132.75 87.35C130.26 86.69 126.22 88.97 126 92.25C127.88 91.62 128.68 93.37 129.25 96C129.5 95.5 129.76 95 130.01 94.5C130.42 96.17 130.84 97.84 131.25 99.51C131.49 99.61 131.72 99.7 131.96 99.8C133.06 99.7 134.15 99.6 135.25 99.5C136.65 101.11 136.82 99.35 138.23 99.7C138.68 99.82 139.12 100.34 139.75 100.5C139.5 99.69 139.25 98.89 139 98.08C139.25 97.67 139.5 97.26 139.75 96.85C140.22 97.32 140.68 97.78 141.15 98.25C141.32 98.58 141.48 98.92 141.65 99.25C141.43 100.33 141.22 101.4 141 102.48C140.61 103.24 140.21 103.99 139.82 104.75C137.13 105.09 134.44 105.44 131.75 105.78C131.81 109.6 131.88 113.43 131.94 117.25C129.2 117.75 126.46 118.25 123.72 118.75C121.87 115.88 122.27 111.08 122.46 107.75C121.63 107.72 120.8 107.68 119.96 107.65C120.32 106.73 121.25 106.12 121.5 105.22C121.93 103.7 121.58 98.84 121 97.46C120.77 97.22 120.55 96.99 120.32 96.75C120.96 96.17 121.61 95.58 122.25 95C122.25 94.5 122.25 94 122.25 93.5C121.66 93.33 121.07 93.17 120.48 93C120.3 91.17 120.12 89.33 119.93 87.5C120.21 87.67 120.48 87.83 120.75 88C122.08 87.83 123.42 87.67 124.75 87.5C125.22 87.25 125.68 87 126.15 86.75C126.02 86.31 125.9 85.87 125.77 85.43C126.43 85.2 127.1 84.98 127.76 84.75C126.87 83.33 117.76 75.24 116.61 75.25C115.77 77.33 114.09 82.61 116.5 83.98C116.5 84.24 116.5 84.49 116.5 84.75C116.34 85.33 116.18 85.92 116.02 86.5C112.84 90.09 113.82 91.99 112.75 96.12C111.14 94.2 109.53 92.28 107.92 90.35C108.12 90.16 108.31 89.97 108.5 89.77C108.67 89.8 108.83 89.83 109 89.86C109.33 89.86 109.67 89.85 110 89.84C110.42 89.82 110.83 89.79 111.25 89.76C111.3 89.67 111.35 89.59 111.39 89.5C111.45 89.42 111.5 89.34 111.55 89.26C111.87 89.15 112.18 89.04 112.5 88.93C112.64 88.79 112.79 88.64 112.93 88.5C113.02 88.31 113.1 88.11 113.18 87.92C113.21 87.59 113.23 87.27 113.26 86.94C113.19 86.79 113.11 86.65 113.04 86.5C112.78 86.41 112.51 86.32 112.25 86.22C112.18 86.33 112.12 86.44 112.05 86.54C111.88 86.71 111.71 86.87 111.53 87.04C111.34 87.35 111.15 87.66 110.96 87.97C110.56 88.17 110.15 88.36 109.75 88.56C109.5 87.21 109.26 85.86 109.01 84.51C109.18 84.44 109.34 84.37 109.51 84.3C109.75 84.03 109.98 83.76 110.22 83.5C110.31 83.32 110.39 83.14 110.48 82.96C110.58 82.89 110.69 82.82 110.79 82.75C110.76 82.51 110.73 82.27 110.69 82.02C110.64 81.85 110.59 81.67 110.53 81.5C110.59 81.08 110.65 80.67 110.72 80.25C110.49 80.15 110.27 80.05 110.04 79.95C109.94 79.85 109.85 79.75 109.75 79.65C109.31 79.69 108.88 79.72 108.44 79.76C108.2 79.75 107.97 79.75 107.73 79.75C107.63 79.98 107.53 80.21 107.44 80.44C107.02 80.79 106.61 81.15 106.2 81.5C106.15 81.67 106.11 81.83 106.06 82C105.99 82.17 105.92 82.33 105.85 82.5C105.8 82.67 105.76 82.83 105.71 83C105.7 83.17 105.68 83.33 105.66 83.5C105.75 84.17 105.83 84.83 105.91 85.5C105.79 85.86 105.66 86.21 105.53 86.57C102.25 82.52 99.5 77.98 96.56 73.66C95.47 72.06 92.83 69.7 92.7 67.7C92.54 65.34 96.77 61.01 98.7 60.25C102.05 66.08 105.4 71.91 108.75 77.74C110.78 75.4 111.6 62.08 111.42 58.5C111.44 58.36 111.47 58.22 111.5 58.08ZM188.93 63.85C190.54 64.16 192.14 64.47 193.75 64.78C193.66 66.1 193.57 67.43 193.48 68.75C191.73 68.68 189.99 68.61 188.25 68.55C188.08 69.81 187.92 71.07 187.75 72.34C189.85 72.98 191.95 73.61 194.05 74.25C193.73 75.58 193.4 76.92 193.08 78.25C189.05 77.25 185.02 76.25 180.98 75.25C181.71 69.67 182.43 64.08 183.15 58.5C183.42 58.42 183.68 58.33 183.95 58.25C184.05 59.25 184.15 60.25 184.25 61.24C185.33 61.41 186.42 61.58 187.5 61.75C187.67 62.58 187.83 63.42 188 64.25C188.31 64.12 188.62 63.98 188.93 63.85ZM142 58.54C141.67 58.95 141.33 59.35 141 59.75C141.22 60.35 141.45 60.94 141.67 61.54C141.36 63.28 141.05 65.01 140.74 66.75C142.54 66.91 144.81 66.74 145.88 65.25C145.57 64.44 145.27 63.64 144.97 62.83C145.15 62.64 145.32 62.44 145.5 62.25C145.17 61.92 144.83 61.58 144.5 61.25C144 60.36 143.5 59.48 143 58.59C144.33 58.92 145.67 59.25 147 59.58C147.58 60.22 148.17 60.86 148.75 61.5C149.15 61.33 149.55 61.17 149.94 61C152 63.92 154.05 66.83 156.11 69.75C154.65 70.94 153.2 72.13 151.75 73.32C150.75 72.23 149.75 71.14 148.75 70.05C146.62 69.78 140.57 70.11 138.94 71.69C138.02 72.59 138.01 74 137.25 74.96C135.73 74.39 134.2 73.82 132.68 73.25C134.15 69.33 135.62 65.42 137.08 61.5C137.31 61.67 137.53 61.83 137.75 62C138 61.42 138.25 60.83 138.5 60.25C138.83 59.81 139.17 59.38 139.5 58.94C140.33 58.81 141.17 58.68 142 58.54ZM208.69 70.02C207.54 73.85 206.4 77.68 205.25 81.51C203.47 80.92 201.7 80.34 199.92 79.75C200.97 75.83 202.02 71.92 203.06 68C203.29 68.17 203.52 68.33 203.75 68.5C204.61 66.88 205.52 66.75 207.25 66.72C208.1 67.72 208.38 67.96 208 69.25C208.23 69.51 208.46 69.76 208.69 70.02ZM25.92 75.99C25.53 75.82 25.14 75.66 24.75 75.5C24.15 75.47 23.54 75.44 22.94 75.42C21.61 72.77 23.09 69.02 24.75 66.94C26.87 67.33 27.6 68.41 28.65 70.25C27.74 72.16 26.83 74.07 25.92 75.99ZM219.22 72.13C218.07 73 216.92 73.88 215.77 74.75C216.76 77.54 217.76 80.33 218.75 83.13C216.92 83.74 215.08 84.36 213.25 84.98C212.17 81.07 211.09 77.16 210.01 73.25C211.36 72.17 212.7 71.08 214.04 70C214.94 69.26 215.85 68.52 216.75 67.78C217.67 68.1 218.58 68.43 219.5 68.75C219.17 69.58 218.83 70.42 218.5 71.25C218.74 71.54 218.98 71.84 219.22 72.13ZM86.42 68.95C86.44 70.22 86.47 71.48 86.5 72.75C86.7 72.83 86.9 72.92 87.09 73C86.98 80.59 86.86 88.19 86.75 95.78C83.56 92.21 80.36 88.64 77.17 85.06C77.53 79.27 72.21 74.61 68.94 70.4C71.84 70.27 74.73 70.13 77.63 70C78.17 70.5 78.71 71 79.25 71.5C79.75 71.5 80.25 71.5 80.75 71.5C81.03 71.02 81.31 70.54 81.58 70.07C82.47 69.74 83.36 69.42 84.25 69.1C84.58 69.46 84.92 69.82 85.25 70.19C85.64 69.78 86.03 69.36 86.42 68.95ZM27.66 81.35C27.72 83.58 27.79 85.81 27.85 88.04C27.23 89.2 26.62 90.35 26.01 91.5C25.64 91.67 25.28 91.85 24.92 92.02C24.53 92.11 24.14 92.19 23.75 92.28C23.08 92.02 22.42 91.76 21.75 91.5C21.67 91.37 21.58 91.23 21.5 91.1C23.24 90.76 24.55 91.06 25.29 89.25C24.12 87.83 23.03 89.44 21.57 89.75C20.81 88 20.97 86.38 22.44 85.09C23 83.81 23.56 82.53 24.12 81.25C23.76 81.16 23.41 81.06 23.05 80.97C22.29 80.26 22.21 80.34 22.75 79.5C24.39 80.12 26.02 80.73 27.66 81.35ZM152 84.06C153.38 85.12 154.51 84.77 156.16 85.09C159.13 85.69 162.19 88.51 164 90.75C165.76 89.85 169.2 89.98 170.5 91.35C168.83 91.32 167.17 91.28 165.5 91.25C162.9 95.32 166.09 109.95 164.25 115.66C161.24 115.69 158.23 115.72 155.22 115.75C155.06 107.7 154.91 99.65 154.75 91.59C151.69 91.31 148.63 91.03 145.57 90.75C145.47 88.5 145.36 86.25 145.25 84C147.5 84.02 149.75 84.04 152 84.06ZM182.58 91.05C183.87 93.16 187.04 93.69 188.56 95.68C190.04 97.6 189.34 100.28 190.08 102.48C191 105.03 189.86 115.68 188.51 118.25C185.55 117.75 182.58 117.25 179.62 116.75C180.24 109.67 180.86 102.58 181.49 95.5C181.74 95.92 182 96.33 182.25 96.75C182.36 94.85 182.47 92.95 182.58 91.05ZM220.56 105.7C221.4 107.11 222.24 108.52 223.08 109.93C223.14 110.12 223.19 110.31 223.25 110.5C223.58 110.67 223.92 110.83 224.25 111C224.67 110.25 225.08 109.5 225.5 108.75C225.53 108.31 225.56 107.86 225.58 107.42C225.81 107.06 226.03 106.71 226.25 106.36C227.25 106.85 228.25 107.34 229.25 107.83C229.64 108.72 230.03 109.6 230.42 110.48C230.11 111.07 229.81 111.66 229.5 112.25C229.83 112.42 230.17 112.58 230.5 112.75C230.17 112.92 229.83 113.08 229.5 113.25C229.73 113.82 229.96 114.38 230.19 114.95C229.65 118.69 228.67 125.39 226.25 128.22C220.75 121.12 215.25 114.02 209.75 106.92C208.28 111.87 206.82 116.81 205.35 121.75C202.98 121.06 200.62 120.38 198.25 119.69C197.68 116.64 199.08 113.65 199.9 110.71C201.56 104.76 202.57 98.14 205.07 92.5C206.13 92.98 206.25 92.45 206.75 91.5C211.23 93.74 216.35 102.03 219 106.25C219.52 106.07 220.04 105.88 220.56 105.7ZM88.58 103C89.86 104.33 91.14 105.65 92.42 106.98C92.44 107.73 92.47 108.49 92.5 109.25C92.69 109.28 92.87 109.31 93.06 109.34C92.79 111.06 92.52 112.78 92.25 114.5C93.91 115.38 95.68 114.1 97.59 113.94C97.64 114.13 97.7 114.31 97.75 114.5C98.25 114.5 98.75 114.5 99.25 114.5C99.86 113.98 100.47 113.46 101.08 112.94C102.1 113.87 103.11 114.81 104.12 115.75C102.91 116.42 101.71 117.08 100.5 117.75C100.83 117.89 101.17 118.02 101.5 118.16C98.16 119.69 94.83 121.22 91.49 122.75C90.91 124.82 90.33 126.89 89.75 128.97C87.11 128.23 84.46 127.49 81.82 126.75C83.55 119.83 85.28 112.92 87.01 106C87.25 106.17 87.5 106.33 87.75 106.5C88 106.08 88.25 105.67 88.5 105.25C88.53 104.5 88.56 103.75 88.58 103ZM250.5 110.58C251.92 110.56 253.33 110.53 254.75 110.5C254.83 110.62 254.92 110.74 255 110.86C254 111.03 253 111.21 252 111.39C251.91 111.4 251.81 111.41 251.72 111.42C251.23 111.35 250.74 111.28 250.25 111.21C250.17 111.43 250.08 111.64 250 111.85C249.58 112.06 249.17 112.28 248.75 112.5C250.84 113.28 256.75 114.53 256.25 117.5C257.54 117.59 257.81 117.43 257.75 118.78C258.5 118.69 259.25 118.61 260 118.52C260.08 118.78 260.17 119.04 260.25 119.3C261.58 119.66 262.92 120.02 264.25 120.38C264.54 120.28 264.83 120.18 265.11 120.08C262.93 121.85 254.68 117.84 250.16 121.41C246.18 124.55 247.62 133.53 253.16 133.75C254.35 132.32 255.33 130.02 255 128.15C255.42 127.26 255.83 126.38 256.25 125.5C258.34 127.02 259.88 129.83 262.75 128.92C263 129.47 263.25 130.02 263.5 130.56C263.7 131.29 263.89 132.02 264.09 132.75C262.31 136.45 260.53 140.15 258.75 143.85C250.92 143.98 239.08 133.97 237.88 126.25C237.28 122.39 239.49 119.45 239.7 116.02C241.22 114.49 241.59 113.02 243.75 113C244.32 111.57 246 111.64 247.25 110.48C248.33 110.51 249.42 110.55 250.5 110.58ZM73.16 117.03C73.61 117.93 74.05 118.84 74.5 119.75C75.04 119.81 75.58 119.86 76.12 119.92C76.5 119.73 76.87 119.54 77.25 119.35C77.58 119.9 77.92 120.45 78.25 121C78.68 121.01 79.11 121.02 79.54 121.04C80.28 124.28 78.14 127.05 78.25 130.3C81.58 131.15 84.92 131.99 88.25 132.84C89.08 131.85 89.92 130.86 90.75 129.87C91.01 128.83 91.27 127.79 91.53 126.75C93.15 126.13 94.04 126.69 95.32 127.75C95.18 130.54 89.78 144.05 87.75 145.21C80.64 142.52 74.22 136.94 67.58 133.19C64.8 131.63 60.01 129.66 58.57 126.75C59.55 124 60.54 121.25 61.52 118.5C61.85 118.42 62.17 118.33 62.5 118.25C62.92 116.52 63.33 114.78 63.75 113.05C66.58 112.75 69.42 112.46 72.25 112.16C72.67 112.86 73.08 113.55 73.5 114.25C73.17 114.92 72.83 115.58 72.5 116.25C72.72 116.51 72.94 116.77 73.16 117.03ZM50.52 118.79C55.68 129.42 60.84 140.05 66 150.68C66.06 151.07 66.13 151.47 66.19 151.86C65.63 151.78 65.06 151.7 64.5 151.62C63 151.55 61.5 151.48 60 151.41C59.67 151.33 59.33 151.25 59 151.17C57.83 151.07 56.67 150.97 55.5 150.86C54.81 150.72 54.12 150.58 53.44 150.44C53.37 150.25 53.31 150.06 53.25 149.87C52.82 149.87 52.39 149.86 51.96 149.86C51.55 149.75 51.15 149.64 50.75 149.52C50.69 149.88 50.64 150.23 50.58 150.59C50.89 150.83 51.19 151.06 51.5 151.3C51.67 151.29 51.83 151.29 52 151.28C52.29 151.43 52.57 151.58 52.86 151.73C53.24 151.88 53.62 152.03 54 152.18C54.17 152.16 54.33 152.14 54.5 152.12C56.92 152.94 60.58 152.64 60.77 155.75C62.43 155.68 64.09 155.61 65.75 155.54C64.84 154.95 63.92 154.35 63.01 153.75C63.51 153.49 64 153.23 64.5 152.96C65.83 152.97 67.17 152.97 68.5 152.97C69.33 153.07 70.17 153.16 71 153.25C71.17 153.47 71.33 153.68 71.5 153.9C71.71 153.9 71.91 153.89 72.12 153.89C72.11 154.09 72.1 154.3 72.09 154.5C72.14 155.16 72.2 155.82 72.25 156.48C72.97 156.49 73.69 156.5 74.42 156.5C74.95 156.75 75.48 157 76.01 157.25C75.26 157.5 74.5 157.75 73.75 158C72.92 158.17 72.08 158.33 71.25 158.5C71 158.75 70.75 159 70.5 159.25C70.53 159.5 70.56 159.75 70.58 160C67.64 161.76 64.85 163.59 62.25 166C61.19 166.98 60.67 168.19 59.45 169.08C57.16 169.14 55.71 173.25 54.12 174.88C50.66 178.45 47.54 180.85 42.75 182.11C42.58 176.37 48.88 171.84 49.75 166.44C48.25 167.86 46.75 169.28 45.25 170.7C44.55 170.78 43.86 170.85 43.16 170.93C42.94 170.2 42.72 169.48 42.5 168.75C41.64 167.98 39.99 168.68 38.67 169.42C32.19 173.06 31.68 170.77 25.75 172.47C24.51 171.29 23.27 170.12 22.03 168.94C23.5 169.21 24.97 169.48 26.43 169.75C24.66 168.9 22.94 168.78 22.17 166.75C23.52 165.78 25.14 167 26.75 167.12C29.38 167.31 31.47 166.14 33.94 165.94C32.79 166.71 31.65 167.48 30.5 168.25C34.1 168.74 36.83 165.57 40.25 165C40.5 164.64 40.75 164.28 41 163.92C42.58 163.57 44.17 163.22 45.75 162.87C44.76 162.41 46.16 162.1 46 161.25C44.67 161.03 44.63 161.71 43.25 162.5C42.48 161.3 40.52 162.52 38.95 162.42C38.9 162.03 38.84 161.64 38.78 161.25C40.96 157.71 45.46 158.27 48.5 156.25C46.88 155.01 47.28 153.64 47.25 151.86C46.25 151.56 45.25 151.25 44.25 150.95C43.42 153.34 37.31 157.34 34.96 159C35.72 157.72 36.49 156.43 37.25 155.15C36.39 154.85 35.53 154.55 34.67 154.25C34.56 153.42 34.45 152.58 34.34 151.75C36.62 150.53 38.96 151.81 41.19 150.97C42.3 150.55 42.33 149.76 43.65 149.75C42.71 146.42 37.67 146.63 35.18 144.54C34.3 143.8 34.55 142.51 33.75 141.63C32.17 142.39 31.83 143.76 30.55 144.8C29.66 145.53 28.54 145.38 27.51 145.76C26.39 146.18 25.79 147.22 24.75 147.79C22.74 146.27 19.27 145.27 18.18 142.75C22.47 142.49 25.93 144.32 29.18 140.25C27.17 140.53 27.47 140.28 26.25 141.96C21.75 142.25 20.37 139.09 21.56 134.84C21.79 134.02 22.58 133.45 22.76 132.58C23.01 131.36 22.32 130.24 22.25 129.05C23.77 127.27 24.71 127.8 26.76 127.75C25.8 127.08 24.84 126.42 23.88 125.75C27.15 125.44 29.2 126.85 31.25 129.25C30.96 127.81 30.68 126.37 30.39 124.94C31.94 128.43 33.49 131.93 35.04 135.43C34.41 134.7 33.78 133.98 33.15 133.25C33.3 139.56 36.02 142.23 40.75 145.88C41.04 145.72 41.34 145.57 41.63 145.41C41.46 145.23 41.29 145.05 41.11 144.88C40.61 144.23 40.11 143.58 39.6 142.93C41.27 143.87 42.94 144.81 44.6 145.75C41.07 138 37.53 130.25 33.99 122.5C35.14 120.71 32.39 118.58 33.24 116.25C37.84 114.67 44.02 114.59 48.25 116C48.67 117.25 49.08 118.5 49.5 119.75C49.84 119.43 50.18 119.11 50.52 118.79ZM119.42 116.93C119.77 117.7 120.13 118.48 120.48 119.25C120 119.69 119.52 120.14 119.04 120.58C118.61 120.56 118.18 120.53 117.75 120.5C117.17 120.69 116.58 120.89 116 121.08C115.83 120.97 115.67 120.86 115.5 120.75C115.92 120 116.33 119.25 116.75 118.5C116.73 118.26 116.72 118.03 116.7 117.79C116.78 117.7 116.86 117.6 116.95 117.5C117.55 117.5 118.15 117.5 118.75 117.5C118.97 117.31 119.2 117.12 119.42 116.93ZM105.99 125.81C106.36 126.37 106.72 126.94 107.08 127.5C106.86 130.91 106.31 135.78 102.17 134.75C103.44 131.77 104.72 128.79 105.99 125.81ZM31.5 130.75C29.16 132 29.86 138.15 30.58 140.25C30.58 140.25 31.73 138.89 31.91 138.16C32.4 136.08 32.23 132.71 31.5 130.75ZM35.04 135.43C35.88 137.25 36.73 139.08 37.57 140.9C37.35 140.85 37.13 140.8 36.92 140.75C36.29 138.98 35.67 137.2 35.04 135.43ZM99.09 145.47C98.72 145.4 98.35 145.32 97.98 145.25C94.89 148.13 96.38 152.66 97.16 156.36C97.16 159.41 97.17 162.45 97.17 165.5C96.9 165.42 96.63 165.33 96.35 165.25C95.89 164.64 95.42 164.03 94.96 163.42C95.12 161.25 95.14 160.4 93.92 158.5C93.92 158.33 93.92 158.17 93.92 158C94.29 156.92 94.65 155.83 95.02 154.75C94.23 151.83 92.64 150.37 90 151.25C90 146.72 92.77 147.21 92.69 145.42C94.55 143.74 96.4 142.06 98.25 140.38C99.51 141.89 99.11 143.55 99.09 145.47ZM37.57 140.9C37.72 141.09 37.87 141.28 38.02 141.47C37.87 141.28 37.72 141.09 37.57 140.9ZM38.02 141.47C38.19 141.64 38.37 141.81 38.54 141.97C38.37 141.81 38.19 141.64 38.02 141.47ZM38.54 141.97C38.71 142.13 38.89 142.28 39.06 142.44C38.89 142.28 38.71 142.13 38.54 141.97ZM39.06 142.44C39.24 142.6 39.42 142.76 39.6 142.93C39.42 142.76 39.24 142.6 39.06 142.44ZM21.25 148.25C21 147.92 20.75 147.58 20.5 147.25C19.85 146.92 19.2 146.58 18.55 146.25C20.16 146.15 21.5 146.26 21.25 148.25ZM76.08 158C76.06 157.58 76.03 157.17 76 156.75C75.69 156.47 75.39 156.19 75.08 155.92C75.2 155.69 75.31 155.47 75.43 155.25C75.37 154.88 75.31 154.5 75.25 154.13C75.75 154.55 76.25 154.97 76.75 155.39C76.88 156.17 77.02 156.96 77.15 157.75C76.79 157.83 76.44 157.92 76.08 158ZM28.62 155C28.62 155.33 28.61 155.67 28.61 156C28.16 156.09 27.7 156.17 27.25 156.26C27.16 155.92 27.06 155.59 26.97 155.25C27.4 155.05 27.82 154.85 28.25 154.65C28.37 154.77 28.5 154.88 28.62 155ZM32 157.09C32.03 157.25 32.06 157.4 32.08 157.55C32.06 157.4 32.03 157.25 32 157.09ZM30.92 157.53C30.79 157.69 30.66 157.84 30.53 158C30.66 157.84 30.79 157.69 30.92 157.53ZM48.48 162.87C48.25 163.16 48.02 163.46 47.8 163.75C48.24 163.68 48.69 163.62 49.14 163.55C52.67 161.6 56.21 159.65 59.75 157.7C56.36 157.32 50.91 160.47 48.48 162.87ZM30.53 158C30.86 158.17 31.19 158.34 31.52 158.51C31.02 159.02 30.51 159.53 30 160.03C29.83 160.19 29.67 160.34 29.5 160.49C29.08 160.62 28.67 160.74 28.25 160.87C29.01 159.91 29.77 158.96 30.53 158ZM31.88 158C31.76 158.17 31.64 158.34 31.52 158.51C31.64 158.34 31.76 158.17 31.88 158ZM34.96 159C34.89 159.14 34.82 159.27 34.75 159.41C34.82 159.27 34.89 159.14 34.96 159ZM33.42 160.75C33.58 162.27 33.63 162.73 32.25 163.48C32.03 163.23 31.81 162.99 31.59 162.75C31.87 161.51 32.08 160.88 33.42 160.75ZM63.76 162.25C61.6 164.08 59.45 165.92 57.29 167.75C59.45 165.92 61.6 164.08 63.76 162.25ZM23.25 163.09C23.42 163.1 23.58 163.1 23.75 163.11C23.8 163.16 23.85 163.2 23.9 163.25C23.9 163.42 23.89 163.58 23.88 163.75C23.84 163.78 23.79 163.81 23.75 163.85C23.58 163.84 23.42 163.83 23.25 163.82C23.21 163.8 23.17 163.77 23.13 163.75C23.1 163.58 23.06 163.42 23.03 163.25C23.1 163.2 23.18 163.14 23.25 163.09ZM38.36 163C38.99 162.98 39.62 162.95 40.25 162.93C40.33 163.26 40.42 163.59 40.5 163.92C39.75 164.16 39 164.41 38.25 164.65C38 164.42 37.76 164.19 37.51 163.96C37.79 163.64 38.08 163.32 38.36 163ZM89.58 166C89.56 166.25 89.53 166.5 89.5 166.75C88.83 167.36 88.17 167.97 87.5 168.58C87.25 168.72 87 168.86 86.75 169C86.28 168.75 85.82 168.5 85.35 168.25C85.42 167.52 85.49 166.8 85.56 166.07C86.12 166.05 86.69 166.02 87.25 166C87.75 165 88.25 164 88.75 163C89.5 163.25 90.25 163.5 91 163.75C90.53 164.5 90.06 165.25 89.58 166ZM18.96 164C18.89 163.83 18.82 163.67 18.75 163.5C18.82 163.67 18.89 163.83 18.96 164ZM18.96 164C19.2 164.08 19.44 164.17 19.69 164.25C19.44 164.17 19.2 164.08 18.96 164ZM37.51 163.96C37.09 164.49 36.67 165.01 36.25 165.53C36 165.4 35.76 165.26 35.51 165.13C36.18 164.74 36.84 164.35 37.51 163.96ZM35.51 165.13C35.56 165.34 35.6 165.54 35.65 165.75C35.08 165.81 34.51 165.88 33.94 165.94C34.46 165.67 34.99 165.4 35.51 165.13ZM39.07 166.99C38.7 167.08 38.34 167.16 37.98 167.25C38.34 167.16 38.7 167.08 39.07 166.99C41.71 166.61 42.67 165.78 44.71 167.75C45.31 167.1 45.9 166.46 46.5 165.81C46.51 165.71 46.53 165.6 46.54 165.5C44.55 164.24 40.62 165.24 39.07 166.99ZM36.25 168.19C36.21 168.21 36.16 168.23 36.12 168.25C36.16 168.32 36.21 168.38 36.25 168.45C36.42 168.42 36.58 168.38 36.75 168.35C36.82 168.32 36.89 168.28 36.96 168.25C36.89 168.21 36.82 168.16 36.75 168.12C36.58 168.14 36.42 168.17 36.25 168.19ZM22.03 168.94C21.77 168.88 21.51 168.81 21.25 168.75C21.51 168.81 21.77 168.88 22.03 168.94ZM34.53 169.54C33.8 169.54 33.07 169.54 32.34 169.54C33.07 169.54 33.8 169.54 34.53 169.54ZM61.26 174.5C61.37 174.82 61.48 175.14 61.58 175.45C61.56 175.89 61.53 176.32 61.5 176.75C60.81 177.83 60.11 178.92 59.42 180C58.45 179.75 57.48 179.5 56.51 179.25C57.59 178.5 58.67 177.75 59.75 177C57.2 175.06 58.74 175.9 58.25 173C59.25 173.5 60.26 174 61.26 174.5Z" fill="#75c4ea" fill-rule="evenodd" stroke="#75c4ea" stroke-width="0.25" stroke-linejoin="round"/>
<path d="M36.77 10.41C36.93 10.91 37.09 11.41 37.25 11.91C36.32 12.19 35.39 12.47 34.46 12.75C32.8 17.8 34.57 28.2 34.76 33.78C34.85 36.32 34.31 39.99 35.39 42.33C38.55 49.15 47.92 56.13 52.08 62.81C51.54 64.93 51.63 71.34 52.22 73.57C53.38 77.89 56.28 81.82 58.85 85.38C63.3 91.58 68.35 97.36 76.21 91.25C76.53 89.19 76.85 87.12 77.17 85.06C80.36 88.64 83.56 92.21 86.75 95.78C86.86 88.19 86.98 80.59 87.09 73C87.26 69.35 87.42 65.7 87.58 62.05C87.69 62.05 87.81 62.05 87.92 62.05C89.36 62.97 90.81 63.89 92.25 64.81C93.21 63.68 94.17 62.56 95.14 61.44C96.17 60.44 97.21 59.43 98.25 58.43C99.75 60.28 101.25 62.13 102.75 63.98C103.87 58.58 102.09 47.35 100.92 41.76C100.47 39.59 99.4 37.42 99.12 35.22C98.92 33.61 99.99 33.18 100.2 31.75C100.69 28.43 99.34 16.66 98.55 13.25C97.69 13.03 96.82 12.82 95.95 12.6C96.92 12.32 97.89 12.03 98.85 11.75C102.5 15.52 99.09 28.62 102.87 30.93C103.02 32.46 103.17 34 103.32 35.54C104.8 41.25 106.27 46.95 107.75 52.66C109.49 52.19 111.23 51.72 112.97 51.25C114.29 48.74 111.83 45.52 112.23 42.75C114.57 41.87 116.91 40.99 119.25 40.11C120.08 42.4 120.92 44.69 121.75 46.99C123.06 46.38 122.97 44.35 124.5 45.09C122.33 51.57 126.73 62.88 124.52 68.2C124.18 68.22 123.84 68.23 123.5 68.25C122.68 67.45 121.85 66.66 121.03 65.86C118.95 63.88 116.87 61.91 114.8 59.93C113.82 58.49 113.32 57.83 111.5 58.08C111.08 57.48 110.67 56.89 110.25 56.3C108.01 57.25 106.61 57.29 104.25 57.16C104.09 61.13 103.91 68.59 106.75 71.51C109.06 68.66 108.39 62.85 109.25 59.27C109.97 59.01 110.69 58.76 111.42 58.5C111.6 62.08 110.78 75.4 108.75 77.74C105.4 71.91 102.05 66.08 98.7 60.25C96.77 61.01 92.54 65.34 92.7 67.7C92.83 69.7 95.47 72.06 96.56 73.66C99.5 77.98 102.25 82.52 105.53 86.57C105.82 87.06 106.1 87.56 106.39 88.06C106.46 88.2 106.53 88.35 106.6 88.5C106.81 88.83 107.02 89.17 107.23 89.5C107.47 89.75 107.72 90 107.97 90.25C107.96 90.28 107.94 90.32 107.92 90.35C109.53 92.28 111.14 94.2 112.75 96.12C113.82 91.99 112.84 90.09 116.02 86.5C116.27 87.03 116.51 87.56 116.75 88.1C119.15 87.75 118.82 85.94 120.74 84.75C119.66 83.92 118.58 83.08 117.5 82.25C117.17 82.83 116.83 83.41 116.5 83.98C114.09 82.61 115.77 77.33 116.61 75.25C117.76 75.24 126.87 83.33 127.76 84.75C127.1 84.98 126.43 85.2 125.77 85.43C123.82 85.7 121.86 85.98 119.91 86.25C119.91 86.67 119.92 87.08 119.93 87.5C120.12 89.33 120.3 91.17 120.48 93C119.94 94.68 119.4 96.35 118.86 98.03C118.58 98.08 118.29 98.13 118 98.17C117.42 95.67 116.83 93.17 116.25 90.67C113.55 94.26 115.65 98.05 111.25 101.58C108.12 100.4 106.95 96.27 105.01 93.73C99.52 86.57 95.48 77.82 89.25 71.33C89.25 78.46 89.25 85.58 89.25 92.71C89.89 92.07 90.57 90.98 91.64 91.2C93.17 91.5 94.91 93.71 96.03 94.71C99.75 98.01 103.91 101.71 107.15 105.5C105.78 106.17 103.9 103.67 102.66 102.58C98.86 99.26 95.69 94.57 91.25 92.15C90.5 94.43 89.75 96.72 89 99C88.34 101.33 87.67 103.67 87.01 106C85.28 112.92 83.55 119.83 81.82 126.75C84.46 127.49 87.11 128.23 89.75 128.97C90.33 126.89 90.91 124.82 91.49 122.75C94.83 121.22 98.16 119.69 101.5 118.16C102.42 117.92 103.33 117.69 104.25 117.45C105.92 119.15 107.58 120.84 109.25 122.54C111.78 121.33 114.78 117.9 115.65 115.25C114.07 113.63 106.8 107.84 107.37 106.05C110.69 109.28 114.01 112.52 117.33 115.75C117.2 116.33 117.08 116.92 116.95 117.5C116.86 117.6 116.78 117.7 116.7 117.79C115.58 118.88 114.47 119.97 113.35 121.06C112.73 121.79 112.12 122.52 111.5 123.25C112.25 123.03 113 122.81 113.75 122.58C111.92 124.22 110.08 125.86 108.25 127.5C107.86 127.5 107.47 127.5 107.08 127.5C106.72 126.94 106.36 126.37 105.99 125.81C102.03 121.26 99.35 123.02 94.4 125.25C95.2 126.08 96 126.92 96.81 127.75C97.15 131.79 92.31 142.61 89.97 146.2C89.09 146.97 88.21 147.73 87.33 148.5C86.72 148.84 86.11 149.19 85.5 149.53C80.24 146.18 74.52 143.43 69.44 139.8C66.92 138.01 62.98 134.78 59.89 134.75C60.52 138.57 67.05 148 66 150.68C60.84 140.05 55.68 129.42 50.52 118.79C49.09 115.61 47.65 112.43 46.22 109.25C48.19 105.53 55.8 104.61 58.82 107.43C61.74 110.17 62.19 114.82 61.52 118.5C60.54 121.25 59.55 124 58.57 126.75C60.01 129.66 64.8 131.63 67.58 133.19C74.22 136.94 80.64 142.52 87.75 145.21C89.78 144.05 95.18 130.54 95.32 127.75C94.04 126.69 93.15 126.13 91.53 126.75C91.27 127.79 91.01 128.83 90.75 129.87C89.92 130.86 89.08 131.85 88.25 132.84C84.92 131.99 81.58 131.15 78.25 130.3C78.14 127.05 80.28 124.28 79.54 121.04C81.68 119.67 85.52 104.21 85.38 101.25C82 98.99 80.26 93.32 76.25 92.2C74.09 94.69 76.01 97.16 76.8 99.89C79.08 107.87 74.42 114.47 76.12 119.92C75.58 119.86 75.04 119.81 74.5 119.75C74.05 118.84 73.61 117.93 73.16 117.03C75.85 112.01 78.7 98.27 72.75 94.78C65.5 95.01 66.46 95.3 60.79 91.44C59.87 90.82 59.4 90.98 58.92 90C58.48 85.86 54.01 82.19 52.38 78.35C50.9 74.84 51.59 71.44 50.77 67.91C50.33 66.05 48.49 64.36 47.29 62.96C44.77 60.01 39.12 51.13 35.75 50.22C35.85 57.29 35.95 64.35 36.05 71.42C35.87 71.36 35.68 71.31 35.5 71.25C35.25 70.62 35 69.98 34.75 69.35C34.42 70.52 34.08 71.68 33.75 72.85C33.36 72.9 32.97 72.95 32.58 73C33.32 66.72 32.21 60.09 32.07 53.75C32.01 50.86 32.58 46.99 31.47 44.28C29.83 40.28 23.52 34.1 20.48 30.77C18.85 28.99 15.22 23.03 13.43 22.32C12.53 21.96 11.5 22.42 10.55 22.2C13.45 19.23 11.27 18.13 16.75 18C16.93 17.65 17.11 17.31 17.29 16.96C17.44 17.3 17.6 17.64 17.75 17.98C17.44 18.74 17.13 19.49 16.82 20.25C21.46 25.79 26.11 31.33 30.75 36.87C32.49 34.31 30.93 21.8 30.89 18.25C30.87 16.32 31.29 13.7 29.5 12.53C29.85 11.94 30.2 11.34 30.56 10.75C33.19 9.39 33.8 11.34 36.25 11.5C36.42 11.14 36.6 10.78 36.77 10.41ZM90 15.56C91.42 26.68 92.83 37.8 94.25 48.92C89.25 45.67 84.25 42.43 79.25 39.18C79.51 47.62 79.76 56.06 80.02 64.5C79.93 66.23 79.84 67.97 79.75 69.7C77.83 69.4 76.53 65.68 75.53 64.22C73.24 60.64 68.63 52.54 65.8 49.93C64.99 49.18 64.46 49.53 63.94 48.5C64.26 48.25 64.59 48 64.92 47.75C68.48 50.73 72.7 61.1 76.25 62.25C76.23 55.08 76.21 47.92 76.19 40.75C77.51 39.67 78.17 39.81 78.75 38.01C83.11 38.41 86.05 43.86 90.25 44.43C89.19 35.87 88.14 27.31 87.08 18.75C88.05 17.69 89.03 16.62 90 15.56ZM163.46 20.63C164.22 20.67 164.99 20.71 165.75 20.75C167.5 23.65 167.14 28.81 163.67 30.45C162.74 30.9 161.66 30.81 160.7 31.25C159.35 35.35 161.44 40.03 160.3 44.12C159.97 45.31 158.36 46.64 157.66 47.75C155.36 48.56 152.31 48.7 150.02 47.75C147.48 43.23 149.89 36.28 148.73 31.25C146.41 31.01 144.08 30.76 141.75 30.52C141.85 35.92 145.56 44.86 140.55 48.79C138.81 50.15 135.75 49.5 133.75 50.5C132.48 52.83 132.17 62.26 132.75 64.99C136.85 61.25 136.72 54.9 140.75 51C140.69 51.67 140.62 52.33 140.56 53C140.34 53.58 140.13 54.16 139.91 54.74C138.97 57 138.03 59.25 137.08 61.5C135.62 65.42 134.15 69.33 132.68 73.25C134.2 73.82 135.73 74.39 137.25 74.96C138.01 74 138.02 72.59 138.94 71.69C140.57 70.11 146.62 69.78 148.75 70.05C149.75 71.14 150.75 72.23 151.75 73.32C153.2 72.13 154.65 70.94 156.11 69.75C154.05 66.83 152 63.92 149.94 61C148.32 58.91 146.7 56.82 145.08 54.73C144.56 54.1 144.04 53.47 143.52 52.84C142.61 51.46 141.33 51.36 141.25 49.87C143.57 50.53 144.83 52.6 146.32 54.43C149.37 58.18 156.84 66.37 157.93 70.75C156.64 73.46 152.73 77.38 149.75 77.93C148.59 76.7 147.43 75.48 146.28 74.25C139.52 73.52 140.07 77.71 135.75 80.02C134.75 79.84 133.75 79.66 132.75 79.48C132.36 80.06 131.97 80.63 131.58 81.21C131.17 81.56 130.77 81.9 130.37 82.25C129.98 79.62 130.05 78.22 129.02 75.75C129.39 74.65 129.76 73.55 130.14 72.45C130.44 67.8 130.73 63.15 131.03 58.5C131.34 53.86 131.96 49.15 131 44.61C132.45 43.16 131.54 40.72 131.3 38.83C130.77 34.71 129.63 29.86 130.09 25.75C130.98 24.73 131.86 23.71 132.75 22.7C135.03 22.38 137.32 22.07 139.6 21.75C140.32 23.87 141.03 25.99 141.75 28.1C141.91 26.65 142.07 25.2 142.23 23.75C143.8 23.15 144.32 22.93 144.75 21.25C148.17 21.14 151.58 21.04 155 20.94C156.41 21.04 157.82 21.15 159.24 21.25C157.64 21.4 156.04 21.55 154.45 21.71C151.87 21.11 147.55 20.84 145.2 22.25C145.3 22.67 145.4 23.08 145.51 23.5C145.64 24.42 145.77 25.33 145.9 26.25C147.85 26.39 149.8 26.54 151.75 26.68C151.95 27.62 152.15 28.56 152.35 29.5C152.48 34.08 152.62 38.67 152.75 43.25C154.75 43.12 156.75 42.98 158.75 42.85C158.88 37.4 159.01 31.94 159.15 26.49C161.01 26.36 162.88 26.23 164.75 26.11C164.85 25.24 164.95 24.37 165.05 23.5C165.04 21.92 164.72 21.5 163.46 20.63ZM171.25 21.17C175.81 21.53 180.37 21.89 184.93 22.25C186.36 25.43 185.51 27.87 183.37 30.25C183.71 33.71 184.54 36.61 181.81 39.25C185.95 42.69 184.41 46.39 181.25 49.99C177.72 50.46 169.97 49.89 167.05 47.75C167.53 39.75 168.02 31.75 168.5 23.75C169.42 22.89 170.33 22.03 171.25 21.17ZM171.03 23C170.6 29.81 170.18 36.61 169.75 43.42C172.25 44.73 180.15 46.27 182.57 44.75C182.63 43.58 182.69 42.42 182.75 41.25C180.58 40.83 178.42 40.41 176.25 39.99C176.4 38.74 176.55 37.5 176.7 36.25C178.34 36.25 179.98 36.25 181.62 36.25C181.78 34.92 181.94 33.58 182.1 32.25C180.38 31.83 178.65 31.42 176.92 31C177.06 29.75 177.2 28.5 177.33 27.25C179.46 27.08 181.58 26.92 183.7 26.75C183.72 25.46 183.73 24.18 183.75 22.89C181.64 21.87 171.85 20.97 171.03 23ZM133.47 27C133.68 29 133.89 31 134.1 33C134.62 36.92 135.13 40.83 135.65 44.75C137.46 44.58 139.28 44.42 141.09 44.25C142.23 42.07 141.28 36.87 140.49 34.5C140.21 32.17 139.94 29.83 139.66 27.5C139.36 25.88 139.05 24.26 138.75 22.64C136.92 22.88 135.08 23.12 133.25 23.36C133.32 24.57 133.4 25.79 133.47 27ZM129.6 44.5C128.44 45.88 126.17 45.39 124.5 45.09C124.58 44.89 124.67 44.7 124.75 44.5C125.42 44.57 126.08 44.63 126.75 44.7C126.98 44.22 127.21 43.73 127.44 43.25C126.97 41.83 126.5 40.42 126.02 39C125.82 34.68 124.45 28.63 122.25 24.91C121.83 24.83 121.42 24.75 121 24.66C121.62 24.53 122.25 24.39 122.87 24.25C127.51 28.48 125.44 39.64 129.6 44.5ZM116.61 26.5C117.05 29.25 117.49 32 117.94 34.75C116.74 35.14 115.55 35.53 114.36 35.92C114.11 33.7 113.85 31.47 113.6 29.25C114.6 28.33 115.61 27.42 116.61 26.5ZM112.38 36.52C112.44 36.76 112.49 37.01 112.54 37.25C112.35 37.43 112.16 37.62 111.97 37.8C111.56 37.75 111.16 37.7 110.75 37.64C110.58 37.25 110.42 36.86 110.25 36.47C110.19 36.48 110.13 36.49 110.06 36.5C109.94 33.72 109.76 30.06 106.54 29.92C107.28 29.64 108.01 29.37 108.75 29.09C110.9 31.24 110.1 34.72 112.38 36.52ZM116.25 44.66C113.2 46.2 114.8 49.07 115.28 51.75C114.42 52.92 113.56 54.08 112.69 55.25C113.5 58.5 117.96 61.95 120.75 63.65C121.48 61.11 121.71 56.07 120.7 53.53C120.24 52.38 118.95 51.99 118.49 50.72C117.72 48.58 118.06 46.29 116.25 44.66ZM63.55 49.56C65.04 52.8 58.62 59.92 60 63.85C58.99 63.83 57.97 63.81 56.96 63.79C57.82 60.74 60.86 50.62 63.55 49.56ZM157.25 51.19C164.08 51.46 170.92 51.72 177.75 51.99C180.3 56.17 178 58.59 175.75 61.97C174.7 61.97 173.65 61.97 172.59 61.97C170.83 66.07 172.64 70.9 171.26 75.06C170.87 76.25 169.27 77.64 168.53 78.75C154.48 82.43 163.68 67.36 160.25 61.36C158.1 61 156.46 61.26 154.64 59.89C154.64 57.84 154.64 55.8 154.64 53.75C156.17 53 156.8 52.92 157.25 51.19ZM164.13 62.5C164.06 66.25 163.99 70 163.92 73.75C165.86 73.75 167.81 73.76 169.75 73.76C170.08 68.54 170.42 63.31 170.75 58.09C172.75 58.01 174.75 57.93 176.75 57.86C176.87 56.66 176.99 55.47 177.11 54.28C176.89 53.77 176.66 53.26 176.44 52.75C170.3 52.58 164.15 52.42 158 52.25C158.02 53.58 158.03 54.92 158.04 56.25C159.94 56.5 161.85 56.76 163.75 57.01C163.88 58.84 164 60.67 164.13 62.5ZM183.75 52.99C188.25 53.73 192.75 54.48 197.25 55.23C198.8 58.01 197.63 60.78 195.61 62.75C195.16 68.12 195.66 67.53 193.49 72.25C197.47 75.46 195.19 80.05 191.88 82.75C188.39 82.82 180.13 81.62 177.75 78.98C178.92 71.15 180.08 63.31 181.25 55.48C182.73 54.82 182.88 54.2 183.75 52.99ZM183.15 58.5C182.43 64.08 181.71 69.67 180.98 75.25C185.02 76.25 189.05 77.25 193.08 78.25C193.4 76.92 193.73 75.58 194.05 74.25C191.95 73.61 189.85 72.98 187.75 72.34C187.92 71.07 188.08 69.81 188.25 68.55C189.99 68.61 191.73 68.68 193.48 68.75C193.57 67.43 193.66 66.1 193.75 64.78C192.14 64.47 190.54 64.16 188.93 63.85C189.21 62.35 189.48 60.86 189.75 59.36C191.7 59.49 193.65 59.62 195.59 59.75C196.3 58.14 196.46 56.91 195.85 55.25C191.98 54.78 188.12 54.32 184.25 53.85C183.88 55.4 183.52 56.95 183.15 58.5ZM203.06 68C202.02 71.92 200.97 75.83 199.92 79.75C201.7 80.34 203.47 80.92 205.25 81.51C206.4 77.68 207.54 73.85 208.69 70.02C209.38 68.11 210.06 66.21 210.75 64.3C213.45 65.14 214.93 67.13 214.04 70C212.7 71.08 211.36 72.17 210.01 73.25C211.09 77.16 212.17 81.07 213.25 84.98C215.08 84.36 216.92 83.74 218.75 83.13C217.76 80.33 216.76 77.54 215.77 74.75C216.92 73.88 218.07 73 219.22 72.13C225.71 66.02 213.72 62.23 210.11 60.25C215.06 59.19 223.32 65.12 222.44 70.73C221.98 73.62 218.73 74.87 218.28 77.66C217.95 79.63 220.21 82.26 220.59 84.25C218.32 87.34 214.52 91.16 210.25 89.43C209.69 87 209.52 84.15 207.75 82.28C206.42 83.52 205.08 84.76 203.75 86C201.15 85.57 198.49 84.8 196.75 82.75C196.83 79.56 200.87 63.97 202.43 61.22C202.99 60.25 204.08 59.75 204.75 58.81C204.19 61.87 203.63 64.94 203.06 68ZM144.97 62.83C145.27 63.64 145.57 64.44 145.88 65.25C144.81 66.74 142.54 66.91 140.74 66.75C141.05 65.01 141.36 63.28 141.67 61.54C141.87 61.19 142.06 60.85 142.25 60.5C143.16 61.28 144.06 62.05 144.97 62.83ZM133.04 99C132.68 99.27 132.32 99.54 131.96 99.8C131.72 99.7 131.49 99.61 131.25 99.51C130.84 97.84 130.42 96.17 130.01 94.5C130.06 93.75 130.11 93 130.16 92.25C133.03 91.77 135.89 91.28 138.75 90.8C138.86 89.7 138.98 88.6 139.09 87.5C138.92 85.61 138.82 84.41 137.25 83.29C136.98 83.53 136.71 83.76 136.44 84C136.21 83.92 135.98 83.84 135.75 83.76C135.22 83.87 134.69 83.97 134.17 84.07C134.28 83.67 134.39 83.28 134.5 82.88C135.92 82.85 137.33 82.83 138.75 82.8C141.74 85.77 141.58 91.87 138.08 94.32C136.35 95.54 133.98 94.79 132.33 96.25C132.57 97.17 132.81 98.08 133.04 99ZM145.75 83.06C155.44 83.06 165.13 83.06 174.81 83.06C175.98 85.52 176.57 90.05 175.31 92.6C174.79 93.66 173.44 94.59 172.75 95.62C170.92 95.62 169.08 95.62 167.25 95.62C163.73 101.37 169.93 117.51 162.73 120.55C161.22 121.19 158.84 120.69 157.25 120.67C155.37 120.64 153.76 120.65 152.08 119.75C149.69 113.87 154.17 100.77 151.25 95.38C142.51 94.28 141.17 97.1 142.22 85.75C143.4 84.85 144.57 83.96 145.75 83.06ZM170.5 91.35C171.58 91.25 172.67 91.15 173.75 91.05C173.75 88.71 173.75 86.37 173.75 84.03C166.5 84.04 159.25 84.05 152 84.06C149.75 84.04 147.5 84.02 145.25 84C145.36 86.25 145.47 88.5 145.57 90.75C148.63 91.03 151.69 91.31 154.75 91.59C154.91 99.65 155.06 107.7 155.22 115.75C158.23 115.72 161.24 115.69 164.25 115.66C166.09 109.95 162.9 95.32 165.5 91.25C167.17 91.28 168.83 91.32 170.5 91.35ZM188.06 84.59C186.05 84.89 184.03 85.19 182.01 85.49C182.07 85.08 182.13 84.66 182.19 84.25C184.15 84.36 186.1 84.47 188.06 84.59ZM191.5 84.91C195.21 86 193.43 91.4 193.11 94.25C192.59 98.85 191.77 116.29 190.53 119.23C190.03 120.41 188.57 121.56 187.75 122.59C184.62 123.24 179.26 122.39 176.5 120.75C177.58 109.42 178.66 98.08 179.74 86.75C180.5 86.33 181.26 85.91 182.01 85.49C182.07 86.16 182.12 86.83 182.18 87.5C181.95 90.17 181.72 92.83 181.49 95.5C180.86 102.58 180.24 109.67 179.62 116.75C182.58 117.25 185.55 117.75 188.51 118.25C189.86 115.68 191 105.03 190.08 102.48C190.85 100.42 192.68 88.71 192.07 86.77C191.8 85.91 191 85.72 190.25 85.39C190.67 85.23 191.08 85.07 191.5 84.91ZM226 95.35C226.25 95.16 226.5 94.96 226.75 94.77C226.64 96.32 226.54 97.87 226.43 99.42C225.54 102.84 224.64 106.26 223.75 109.68C223.53 109.76 223.31 109.85 223.08 109.93C222.24 108.52 221.4 107.11 220.56 105.7C217.25 101.34 213.71 97.15 210.52 92.71C209.27 90.98 208.42 88.94 206.25 88.5C205.86 89.83 205.46 91.17 205.07 92.5C202.57 98.14 201.56 104.76 199.9 110.71C199.08 113.65 197.68 116.64 198.25 119.69C200.62 120.38 202.98 121.06 205.35 121.75C206.82 116.81 208.28 111.87 209.75 106.92C215.25 114.02 220.75 121.12 226.25 128.22C228.67 125.39 229.65 118.69 230.19 114.95C231.05 111.82 231.91 108.69 232.78 105.55C233.72 102.59 235.38 99.37 234.75 96.27C232.87 95.74 227.52 95.09 227.02 93.6C229.31 93.72 235.08 94.71 236.39 96.87C237.8 99.19 235.35 103.94 234.61 106.29C232.55 112.77 230.17 129.48 224.75 133C218.47 130.33 215.5 118.38 209.75 114.99C207.07 117.84 208.98 121.77 204.25 126.11C201.3 125.98 196.9 124.8 194.75 122.65C194.68 118.88 196.61 114.91 197.61 111.29C199.8 103.3 200.57 93.25 206.41 87.25C211.44 88.87 216.94 101.65 221.75 105.22C224.12 102.31 222.62 97.54 226 95.35ZM27.85 88.04C30.39 93.08 23.41 106.42 34.57 108.72C36.33 109.08 37.48 107.84 38.97 107.64C32.21 114.96 32.19 107.63 27.47 106.75C26.56 109.04 32.56 119.69 33.99 122.5C37.53 130.25 41.07 138 44.6 145.75C42.94 144.81 41.27 143.87 39.6 142.93C39.42 142.76 39.24 142.6 39.06 142.44C38.89 142.28 38.71 142.13 38.54 141.97C38.37 141.81 38.19 141.64 38.02 141.47C37.87 141.28 37.72 141.09 37.57 140.9C36.73 139.08 35.88 137.25 35.04 135.43C33.49 131.93 31.94 128.43 30.39 124.94C28.12 120.04 25.86 115.15 23.59 110.25C24.81 108.75 26.04 107.25 27.26 105.75C26.7 102.8 26.13 99.85 25.56 96.9C25.71 95.1 25.86 93.3 26.01 91.5C26.62 90.35 27.23 89.2 27.85 88.04ZM121 97.46C121.58 98.84 121.93 103.7 121.5 105.22C121.25 106.12 120.32 106.73 119.96 107.65C117.69 106.45 117.76 104.42 117.82 102C118.25 101.01 118.68 100.03 119.1 99.04C119.74 98.52 120.37 97.99 121 97.46ZM141 102.48C142.29 104.58 140.62 107.91 138.5 109.23C137.04 110.14 135.23 109.77 133.75 110.75C133.03 113.33 134.73 116.1 133.85 118.64C132.56 122.35 124.01 124.39 120.84 122.9C119.96 122.48 119.54 121.37 119.04 120.58C119.52 120.14 120 119.69 120.48 119.25C120.13 118.48 119.77 117.7 119.42 116.93C118.71 114.43 117.98 109.69 119.96 107.65C120.8 107.68 121.63 107.72 122.46 107.75C122.27 111.08 121.87 115.88 123.72 118.75C126.46 118.25 129.2 117.75 131.94 117.25C131.88 113.43 131.81 109.6 131.75 105.78C134.44 105.44 137.13 105.09 139.82 104.75C140.21 103.99 140.61 103.24 141 102.48ZM97.59 113.94C95.68 114.1 93.91 115.38 92.25 114.5C92.52 112.78 92.79 111.06 93.06 109.34C93.46 108.12 93.85 106.9 94.25 105.68C96.14 107.87 98.02 110.06 99.91 112.25C99.14 112.81 98.36 113.38 97.59 113.94ZM56.25 126.57C58.78 123.5 59.45 117.53 57.84 113.87C56.52 110.84 51.79 109.34 49.28 111.75C49.32 114.21 54.32 125.32 56.25 126.57ZM265 110.94C265.92 111.24 266.83 111.54 267.75 111.84C269.72 115.95 267 122.31 263.75 124.94C259.62 124.73 255.73 122.73 251.55 124.28C248.07 125.57 248.94 130.42 251.75 131.82C252.83 130.59 253.92 129.37 255 128.15C255.33 130.02 254.35 132.32 253.16 133.75C247.62 133.53 246.18 124.55 250.16 121.41C254.68 117.84 262.93 121.85 265.11 120.08C265.43 118.71 265.74 117.34 266.05 115.97C266.26 115.31 266.48 114.66 266.7 114C266.73 113.9 266.77 113.8 266.8 113.7C266.86 113.38 266.91 113.07 266.97 112.75C266.84 112.64 266.71 112.53 266.58 112.41C266.39 112.29 266.19 112.17 266 112.05C265.87 112 265.73 111.96 265.6 111.92C265.07 111.69 264.53 111.47 264 111.25C264.33 111.15 264.67 111.04 265 110.94ZM239.7 116.02C239.49 119.45 237.28 122.39 237.88 126.25C239.08 133.97 250.92 143.98 258.75 143.85C260.53 140.15 262.31 136.45 264.09 132.75C263.89 132.02 263.7 131.29 263.5 130.56C264 130.79 264.5 131.02 265 131.25C266.31 135.04 260.45 145.97 257.25 148.42C251.9 147.83 247.43 144.26 242.75 141.96C241.83 142.25 240.92 142.54 240 142.83C240.17 142.63 240.33 142.44 240.5 142.25C240.72 141.75 240.93 141.25 241.15 140.75C240.48 139.07 240.44 138.16 238.44 137.92C237.9 135.66 236.1 134.08 235.35 131.86C233.32 125.89 235.59 120.41 239.7 116.02ZM92.6 152.58C92.73 153.14 92.86 153.69 92.98 154.25C89.06 156.67 87.6 162.12 85.56 166.07C84.45 166.8 83.34 167.52 82.24 168.25C82.97 167.19 83.71 166.14 84.44 165.08C86.98 162.08 89.22 153.17 92.6 152.58ZM98.12 154.51C98.36 154.59 98.59 154.67 98.83 154.75C98.9 158.81 98.98 162.87 99.05 166.93C97.77 167.79 97.09 169.94 95.25 169.55C95.62 168.86 95.98 168.18 96.35 167.5C96.78 167.08 97.22 166.67 97.65 166.25C97.49 166 97.33 165.75 97.17 165.5C97.17 162.45 97.16 159.41 97.16 156.36C97.48 155.74 97.8 155.13 98.12 154.51ZM75 158.92C75.08 159.67 75.17 160.43 75.25 161.18C69.02 156.48 61.92 171.58 57.75 172.91C58.32 171.63 58.89 170.36 59.45 169.08C60.67 168.19 61.19 166.98 62.25 166C64.85 163.59 67.64 161.76 70.58 160C70.97 159.83 71.36 159.67 71.75 159.5C72.42 159.5 73.08 159.5 73.75 159.5C74.17 159.31 74.58 159.11 75 158.92ZM37.51 163.96C37.76 164.19 38 164.42 38.25 164.65C39 164.41 39.75 164.16 40.5 163.92C40.67 163.92 40.83 163.92 41 163.92C40.75 164.28 40.5 164.64 40.25 165C36.83 165.57 34.1 168.74 30.5 168.25C31.65 167.48 32.79 166.71 33.94 165.94C34.51 165.88 35.08 165.81 35.65 165.75C35.6 165.54 35.56 165.34 35.51 165.13C35.76 165.26 36 165.4 36.25 165.53C36.67 165.01 37.09 164.49 37.51 163.96ZM72.96 164.11C68.04 167.32 64.8 170.5 61.58 175.45C61.48 175.14 61.37 174.82 61.26 174.5C63.6 170.76 67.96 164.01 72.96 164.11ZM54.75 176.65C55.81 181.02 50.64 186.86 46.2 186.25C47.35 184.89 49.69 184.43 51.09 182.84C52.7 181 53.05 178.36 54.75 176.65ZM57.95 181.08C55.8 184.12 54.39 187.14 51 189C51.01 188.75 51.01 188.5 51.02 188.25C53.71 186.5 55.72 183.61 57.14 180.75C57.41 180.86 57.68 180.97 57.95 181.08Z" fill="#262324" fill-rule="evenodd" stroke="#262324" stroke-width="0.25" stroke-linejoin="round"/>
<path d="M95.95 12.6C96.82 12.82 97.69 13.03 98.55 13.25C99.34 16.66 100.69 28.43 100.2 31.75C99.99 33.18 98.92 33.61 99.12 35.22C99.4 37.42 100.47 39.59 100.92 41.76C102.09 47.35 103.87 58.58 102.75 63.98C101.25 62.13 99.75 60.28 98.25 58.43C97.21 59.43 96.17 60.44 95.14 61.44C94.84 61.38 94.55 61.31 94.26 61.25C93.59 61.94 92.92 62.62 92.25 63.31C91.08 62.68 89.92 62.04 88.75 61.41C88.47 61.62 88.19 61.83 87.92 62.05C87.81 62.05 87.69 62.05 87.58 62.05C87.47 61.68 87.36 61.31 87.25 60.95C85.68 63.11 86.61 66.23 86.42 68.95C86.03 69.36 85.64 69.78 85.25 70.19C84.92 69.82 84.58 69.46 84.25 69.1C83.36 69.42 82.47 69.74 81.58 70.07C81.31 67.54 81.03 65.02 80.75 62.5C80.51 63.17 80.26 63.83 80.02 64.5C79.76 56.06 79.51 47.62 79.25 39.18C84.25 42.43 89.25 45.67 94.25 48.92C92.83 37.8 91.42 26.68 90 15.56C91.42 14.87 92.83 14.19 94.25 13.5C94.58 13.17 94.92 12.83 95.25 12.5C95.48 12.53 95.72 12.57 95.95 12.6ZM163.46 20.63C164.72 21.5 165.04 21.92 165.05 23.5C164.7 23.08 164.35 22.67 164 22.25C160.82 22.07 157.63 21.89 154.45 21.71C156.04 21.55 157.64 21.4 159.24 21.25C157.82 21.15 156.41 21.04 155 20.94C155.08 20.79 155.17 20.65 155.25 20.5C157.99 20.54 160.72 20.59 163.46 20.63ZM176.92 31C176.7 31.33 176.47 31.67 176.25 32C176.17 31.08 176.08 30.17 176 29.25C174.83 29.08 173.65 28.92 172.48 28.75C172.28 27.08 172.08 25.42 171.88 23.75C171.59 23.5 171.31 23.25 171.03 23C171.85 20.97 181.64 21.87 183.75 22.89C183.73 24.18 183.72 25.46 183.7 26.75C181.58 26.92 179.46 27.08 177.33 27.25C177.2 28.5 177.06 29.75 176.92 31ZM139.66 27.5C139.23 27.42 138.79 27.33 138.36 27.25C138.57 27.58 138.79 27.92 139 28.25C138.97 28.83 138.94 29.42 138.92 30C138.69 30.2 138.47 30.39 138.25 30.59C137.11 29.2 136.28 29.49 134.58 29.54C134.47 28.53 134.36 27.51 134.25 26.5C133.99 26.67 133.73 26.83 133.47 27C133.4 25.79 133.32 24.57 133.25 23.36C135.08 23.12 136.92 22.88 138.75 22.64C139.05 24.26 139.36 25.88 139.66 27.5ZM157.62 26.5C157.6 26.67 157.58 26.83 157.56 27C156.95 26.83 156.35 26.67 155.75 26.5C155.25 26.5 154.75 26.5 154.25 26.5C154 26.7 153.75 26.89 153.5 27.09C153.33 27.14 153.17 27.2 153 27.25C153 27.92 153 28.58 153 29.25C152.78 29.33 152.56 29.42 152.35 29.5C152.15 28.56 151.95 27.62 151.75 26.68C149.8 26.54 147.85 26.39 145.9 26.25C145.77 25.33 145.64 24.42 145.51 23.5C145.75 23.17 146 22.83 146.25 22.5C147.45 26.3 155.65 22.82 157.62 26.5ZM163.68 22.66C163.37 23.27 163.06 23.89 162.75 24.5C162.48 22.52 161.15 23.03 159.5 22.66C160.89 22.66 162.29 22.66 163.68 22.66ZM146.75 25C146.67 25.08 146.58 25.17 146.5 25.25C146.58 25.33 146.67 25.42 146.75 25.5C146.83 25.42 146.92 25.33 147 25.25C146.92 25.17 146.83 25.08 146.75 25ZM147.75 25C147.67 25.08 147.58 25.17 147.5 25.25C147.58 25.33 147.67 25.42 147.75 25.5C147.92 25.5 148.08 25.5 148.25 25.5C148.42 25.5 148.58 25.5 148.75 25.5C148.83 25.42 148.92 25.33 149 25.25C148.92 25.17 148.83 25.08 148.75 25C148.58 25 148.42 25 148.25 25C148.08 25 147.92 25 147.75 25ZM152.25 25C152.17 25.08 152.08 25.17 152 25.25C152.08 25.33 152.17 25.42 152.25 25.5C152.33 25.42 152.42 25.33 152.5 25.25C152.42 25.17 152.33 25.08 152.25 25ZM159 25.55C158.83 25.5 158.67 25.44 158.5 25.38C158.58 25.26 158.67 25.13 158.75 25C160.17 25.08 161.58 25.17 163 25.25C161.67 25.35 160.33 25.45 159 25.55ZM163.75 25C163.83 25.08 163.92 25.17 164 25.25C163.92 25.33 163.83 25.42 163.75 25.5C163.67 25.42 163.58 25.33 163.5 25.25C163.58 25.17 163.67 25.08 163.75 25ZM129.6 44.5C130.06 44.54 130.53 44.57 131 44.61C131.96 49.15 131.34 53.86 131.03 58.5C130.77 57.83 130.51 57.17 130.25 56.5C129.97 59.48 129.69 62.45 129.42 65.43C128.53 64.35 127.64 63.28 126.75 62.2C125.24 64.51 125.76 66.96 125.25 69.5C125.01 69.07 124.76 68.63 124.52 68.2C126.73 62.88 122.33 51.57 124.5 45.09C126.17 45.39 128.44 45.88 129.6 44.5ZM63.94 48.5C64.46 49.53 64.99 49.18 65.8 49.93C68.63 52.54 73.24 60.64 75.53 64.22C74.88 64.06 74.23 63.91 73.59 63.75C74.93 65.83 76.28 67.92 77.63 70C74.73 70.13 71.84 70.27 68.94 70.4C65.8 67.39 64.11 65.5 60 63.85C58.62 59.92 65.04 52.8 63.55 49.56C63.68 49.21 63.81 48.85 63.94 48.5ZM177.11 54.28C176.82 55.06 176.54 55.84 176.25 56.61C174.21 56.66 172.17 56.7 170.13 56.75C169.84 57.66 169.54 58.57 169.25 59.48C168.42 59.21 167.58 58.95 166.75 58.68C165.88 59.96 165 61.23 164.13 62.5C164 60.67 163.88 58.84 163.75 57.01C161.85 56.76 159.94 56.5 158.04 56.25C158.03 54.92 158.02 53.58 158 52.25C164.15 52.42 170.3 52.58 176.44 52.75C176.66 53.26 176.89 53.77 177.11 54.28ZM141.75 53.5C141.92 53.34 142.08 53.18 142.25 53.03C142.42 53.18 142.58 53.34 142.75 53.5C142.83 53.58 142.92 53.67 143 53.75C142.92 53.83 142.83 53.92 142.75 54C142.58 53.85 142.42 53.7 142.25 53.55C142.08 53.7 141.92 53.85 141.75 54C141.67 53.92 141.58 53.83 141.5 53.75C141.58 53.67 141.67 53.58 141.75 53.5ZM188.93 63.85C188.62 63.98 188.31 64.12 188 64.25C187.83 63.42 187.67 62.58 187.5 61.75C186.42 61.58 185.33 61.41 184.25 61.24C184.15 60.25 184.05 59.25 183.95 58.25C183.68 58.33 183.42 58.42 183.15 58.5C183.52 56.95 183.88 55.4 184.25 53.85C188.12 54.32 191.98 54.78 195.85 55.25C196.46 56.91 196.3 58.14 195.59 59.75C193.65 59.62 191.7 59.49 189.75 59.36C189.48 60.86 189.21 62.35 188.93 63.85ZM140.47 56.1C141.4 56.06 142.32 56.03 143.25 56C143.87 56.31 144.49 56.61 145.12 56.92C145.6 57.44 146.09 57.97 146.58 58.5C146.68 58.72 146.77 58.94 146.86 59.16C146.91 59.3 146.95 59.44 147 59.58C145.67 59.25 144.33 58.92 143 58.59C142.67 58.57 142.33 58.56 142 58.54C141.17 58.68 140.33 58.81 139.5 58.94C139.5 58.54 139.5 58.15 139.5 57.75C139.72 57.5 139.93 57.25 140.15 57C140.26 56.7 140.36 56.4 140.47 56.1ZM32 73.58C31.39 74.31 30.78 75.03 30.17 75.75C29.34 77.62 28.5 79.48 27.66 81.35C26.02 80.73 24.39 80.12 22.75 79.5C22.21 80.34 22.29 80.26 23.05 80.97C20.95 81.96 19.67 79.57 18.92 77.83C17.51 74.57 17.66 69.84 20.52 67.27C21.64 66.25 23.33 66 24.75 66C29.53 66 30.06 70.34 32 73.58ZM22.94 75.42C22.21 75.18 21.48 74.94 20.75 74.7C20.88 76.42 22.26 76.57 23.75 77.5C24.47 77 25.19 76.49 25.92 75.99C26.83 74.07 27.74 72.16 28.65 70.25C27.6 68.41 26.87 67.33 24.75 66.94C23.09 69.02 21.61 72.77 22.94 75.42ZM110.04 79.95C109.51 79.89 108.97 79.82 108.44 79.76C108.88 79.72 109.31 79.69 109.75 79.65C109.85 79.75 109.94 79.85 110.04 79.95ZM110.04 79.95C110.27 80.05 110.49 80.15 110.72 80.25C110.65 80.67 110.59 81.08 110.53 81.5C110.31 81.92 110.1 82.33 109.88 82.75C109.17 83.06 108.46 83.36 107.75 83.67C107.5 84.69 107.25 85.72 107 86.75C106.64 86.33 106.28 85.92 105.91 85.5C105.83 84.83 105.75 84.17 105.66 83.5C105.8 83.33 105.94 83.17 106.08 83C106.25 82.75 106.41 82.5 106.58 82.25C106.41 82.17 106.23 82.08 106.06 82C106.11 81.83 106.15 81.67 106.2 81.5C106.38 81.63 106.57 81.76 106.75 81.89C106.98 81.41 107.21 80.92 107.44 80.44C108.21 80.46 108.98 80.48 109.75 80.5C109.85 80.32 109.94 80.13 110.04 79.95ZM110.69 82.02C110.73 82.27 110.76 82.51 110.79 82.75C110.69 82.82 110.58 82.89 110.48 82.96C110.55 82.65 110.62 82.34 110.69 82.02ZM105.85 82.5C105.93 82.67 106 82.83 106.08 83C105.96 83 105.84 83 105.71 83C105.76 82.83 105.8 82.67 105.85 82.5ZM110.48 82.96C110.39 83.14 110.31 83.32 110.22 83.5C110.31 83.32 110.39 83.14 110.48 82.96ZM139.09 87.5C137.97 87.91 138.09 87.96 137.94 89.25C136.86 89.25 135.78 89.25 134.7 89.25C135.28 87.5 135.86 85.75 136.44 84C136.71 83.76 136.98 83.53 137.25 83.29C138.82 84.41 138.92 85.61 139.09 87.5ZM22.44 85.09C20.97 86.38 20.81 88 21.57 89.75C23.03 89.44 24.12 87.83 25.29 89.25C24.55 91.06 23.24 90.76 21.5 91.1C20.92 90.77 20.33 90.44 19.75 90.11C19.78 92.62 23.06 93.78 24.92 92.02C25.28 91.85 25.64 91.67 26.01 91.5C25.86 93.3 25.71 95.1 25.56 96.9C19 97.41 14.31 89.89 17.25 84C18.56 85.36 17.64 87.39 19.25 89C19.58 87.5 19.92 86 20.25 84.5C20.98 84.7 21.71 84.89 22.44 85.09ZM109.51 84.3C109.34 84.37 109.18 84.44 109.01 84.51C109.18 84.44 109.34 84.37 109.51 84.3ZM152 84.06C159.25 84.05 166.5 84.04 173.75 84.03C173.75 86.37 173.75 88.71 173.75 91.05C172.67 91.15 171.58 91.25 170.5 91.35C169.2 89.98 165.76 89.85 164 90.75C162.19 88.51 159.13 85.69 156.16 85.09C154.51 84.77 153.38 85.12 152 84.06ZM109.01 84.51C109.26 85.86 109.5 87.21 109.75 88.56C110.15 88.36 110.56 88.17 110.96 87.97C111.16 88.4 111.35 88.83 111.55 89.26C111.5 89.34 111.45 89.42 111.39 89.5C111.01 89.5 110.63 89.5 110.25 89.5C110.17 89.61 110.08 89.73 110 89.84C109.67 89.85 109.33 89.86 109 89.86C108.83 89.32 108.67 88.79 108.5 88.25C108.33 87.58 108.17 86.92 108 86.25C108.17 85.75 108.33 85.25 108.5 84.75C108.67 84.67 108.84 84.59 109.01 84.51ZM188.06 84.59C189.12 84.56 190.19 84.53 191.25 84.5C191.33 84.64 191.42 84.77 191.5 84.91C191.08 85.07 190.67 85.23 190.25 85.39C191 85.72 191.8 85.91 192.07 86.77C192.68 88.71 190.85 100.42 190.08 102.48C189.34 100.28 190.04 97.6 188.56 95.68C187.04 93.69 183.87 93.16 182.58 91.05C182.72 90.79 182.86 90.52 183 90.25C183.2 89.25 183.4 88.25 183.6 87.25C183.12 87.33 182.65 87.42 182.18 87.5C182.12 86.83 182.07 86.16 182.01 85.49C184.03 85.19 186.05 84.89 188.06 84.59ZM113.04 86.5C112.71 86.51 112.38 86.53 112.05 86.54C112.12 86.44 112.18 86.33 112.25 86.22C112.51 86.32 112.78 86.41 113.04 86.5ZM112.05 86.54C111.88 86.71 111.71 86.87 111.53 87.04C111.71 86.87 111.88 86.71 112.05 86.54ZM111.53 87.04C111.34 87.35 111.15 87.66 110.96 87.97C111.15 87.66 111.34 87.35 111.53 87.04ZM113.26 86.94C113.23 87.27 113.21 87.59 113.18 87.92C113.21 87.59 113.23 87.27 113.26 86.94ZM106.6 88.5C106.53 88.35 106.46 88.2 106.39 88.06C106.51 87.87 106.63 87.69 106.75 87.5C106.7 87.83 106.65 88.17 106.6 88.5ZM107.75 87.5C107.83 87.58 107.92 87.67 108 87.75C108 87.92 108 88.08 108 88.25C107.92 88.33 107.83 88.42 107.75 88.5C107.67 88.42 107.58 88.33 107.5 88.25C107.5 88.08 107.5 87.92 107.5 87.75C107.58 87.67 107.67 87.58 107.75 87.5ZM112.25 87.5C112.33 87.58 112.42 87.67 112.5 87.75C112.42 87.83 112.33 87.92 112.25 88C112.17 87.92 112.08 87.83 112 87.75C112.08 87.67 112.17 87.58 112.25 87.5ZM112.93 88.5C112.79 88.64 112.64 88.79 112.5 88.93C112.64 88.79 112.79 88.64 112.93 88.5ZM108.5 89.77C108.31 89.97 108.12 90.16 107.92 90.35C107.94 90.32 107.96 90.28 107.97 90.25C107.72 90 107.47 89.75 107.23 89.5C107.4 89.33 107.58 89.17 107.75 89C108 89.26 108.25 89.52 108.5 89.77ZM58.92 90C59.4 90.98 59.87 90.82 60.79 91.44C66.46 95.3 65.5 95.01 72.75 94.78C78.7 98.27 75.85 112.01 73.16 117.03C72.94 116.77 72.72 116.51 72.5 116.25C72.83 115.58 73.17 114.92 73.5 114.25C73.08 113.55 72.67 112.86 72.25 112.16C69.42 112.46 66.58 112.75 63.75 113.05C63.33 114.78 62.92 116.52 62.5 118.25C62.17 118.33 61.85 118.42 61.52 118.5C62.19 114.82 61.74 110.17 58.82 107.43C55.8 104.61 48.19 105.53 46.22 109.25C47.65 112.43 49.09 115.61 50.52 118.79C50.18 119.11 49.84 119.43 49.5 119.75C49.08 118.5 48.67 117.25 48.25 116C44.02 114.59 37.84 114.67 33.24 116.25C32.39 118.58 35.14 120.71 33.99 122.5C32.56 119.69 26.56 109.04 27.47 106.75C32.19 107.63 32.21 114.96 38.97 107.64C42.62 105.34 42.34 101.65 44.06 98.29C44.85 96.74 46.61 96.55 46.92 94.94C50.92 93.29 54.92 91.65 58.92 90ZM107.15 105.5C107.22 105.68 107.29 105.86 107.37 106.05C106.8 107.84 114.07 113.63 115.65 115.25C114.78 117.9 111.78 121.33 109.25 122.54C107.58 120.84 105.92 119.15 104.25 117.45C103.33 117.69 102.42 117.92 101.5 118.16C101.17 118.02 100.83 117.89 100.5 117.75C101.71 117.08 102.91 116.42 104.12 115.75C103.11 114.81 102.1 113.87 101.08 112.94C100.62 110.1 96.18 104.7 93.25 104.5C92.97 105.33 92.69 106.15 92.42 106.98C91.14 105.65 89.86 104.33 88.58 103C88.89 102.42 89.19 101.83 89.5 101.25C89.5 100.75 89.5 100.25 89.5 99.75C89.82 99.25 90.14 98.75 90.46 98.25C89.98 98.5 89.49 98.75 89 99C89.75 96.72 90.5 94.43 91.25 92.15C95.69 94.57 98.86 99.26 102.66 102.58C103.9 103.67 105.78 106.17 107.15 105.5ZM227.02 93.6C227.52 95.09 232.87 95.74 234.75 96.27C235.38 99.37 233.72 102.59 232.78 105.55C232.6 104.99 232.43 104.42 232.25 103.86C232 104.99 231.75 106.12 231.5 107.25C231.14 108.33 230.78 109.4 230.42 110.48C230.03 109.6 229.64 108.72 229.25 107.83C228.25 107.34 227.25 106.85 226.25 106.36C226.03 106.71 225.81 107.06 225.58 107.42C225.72 106.69 225.86 105.97 226 105.25C226.17 104.58 226.33 103.92 226.5 103.25C226.64 101.82 226.66 102.14 227.65 101.25C227.57 100.75 227.49 100.25 227.4 99.75C227.08 99.64 226.76 99.53 226.43 99.42C226.54 97.87 226.64 96.32 226.75 94.77C226.5 94.96 226.25 95.16 226 95.35C226 95.15 226 94.95 226 94.75C226.17 94.42 226.33 94.08 226.5 93.75C226.67 93.7 226.85 93.65 227.02 93.6ZM99.09 145.47C99.28 147.9 99.46 150.32 99.65 152.75C99.14 153.34 98.63 153.92 98.12 154.51C97.8 155.13 97.48 155.74 97.16 156.36C96.38 152.66 94.89 148.13 97.98 145.25C98.35 145.32 98.72 145.4 99.09 145.47ZM82 155.08C81.92 155.39 81.83 155.69 81.75 156C81.25 156.33 80.75 156.67 80.25 157C79.5 159.26 78.75 161.52 78 163.77C77.83 163.77 77.67 163.76 77.5 163.75C77.42 163.17 77.33 162.58 77.25 162C76.75 162.17 76.25 162.33 75.75 162.5C74.82 163.04 73.89 163.57 72.96 164.11C67.96 164.01 63.6 170.76 61.26 174.5C60.26 174 59.25 173.5 58.25 173C58.74 175.9 57.2 175.06 59.75 177C58.67 177.75 57.59 178.5 56.51 179.25C57.48 179.5 58.45 179.75 59.42 180C59.36 180.17 59.31 180.33 59.25 180.5C58.82 180.69 58.38 180.89 57.95 181.08C57.68 180.97 57.41 180.86 57.14 180.75C55.72 183.61 53.71 186.5 51.02 188.25C51.01 188.5 51.01 188.75 51 189C47.86 190.99 40.19 189.11 39 185.08C39.17 184.97 39.33 184.86 39.5 184.75C39.33 184.25 39.17 183.75 39 183.25C39.33 183.08 39.67 182.92 40 182.75C39.65 182.08 39.29 181.42 38.94 180.75C38.64 180.67 38.35 180.58 38.05 180.5C38.28 179.5 38.52 178.5 38.75 177.5C41.67 178.89 43.3 173.93 42 172.25C42.39 171.81 42.77 171.37 43.16 170.93C43.86 170.85 44.55 170.78 45.25 170.7C46.75 169.28 48.25 167.86 49.75 166.44C48.88 171.84 42.58 176.37 42.75 182.11C47.54 180.85 50.66 178.45 54.12 174.88C55.71 173.25 57.16 169.14 59.45 169.08C58.89 170.36 58.32 171.63 57.75 172.91C61.92 171.58 69.02 156.48 75.25 161.18C75.17 160.43 75.08 159.67 75 158.92C75.36 158.61 75.72 158.31 76.08 158C76.44 157.92 76.79 157.83 77.15 157.75C77.02 156.96 76.88 156.17 76.75 155.39C76.25 154.97 75.75 154.55 75.25 154.13C75.31 154.5 75.37 154.88 75.43 155.25C75.31 155.47 75.2 155.69 75.08 155.92C74.86 156.11 74.64 156.31 74.42 156.5C73.69 156.5 72.97 156.49 72.25 156.48C72.2 155.82 72.14 155.16 72.09 154.5C72.1 154.3 72.11 154.09 72.12 153.89C71.91 153.89 71.71 153.9 71.5 153.9C71.33 153.68 71.17 153.47 71 153.25C70.17 153.16 69.33 153.07 68.5 152.97C68.42 152.76 68.33 152.55 68.25 152.34C67.08 152.39 65.92 152.45 64.75 152.5C64.67 152.65 64.58 152.81 64.5 152.96C64 153.23 63.51 153.49 63.01 153.75C63.92 154.35 64.84 154.95 65.75 155.54C64.09 155.61 62.43 155.68 60.77 155.75C60.58 152.64 56.92 152.94 54.5 152.12C54.58 151.91 54.67 151.71 54.75 151.5C56.08 151.7 57.42 151.89 58.75 152.09C58.83 151.78 58.92 151.48 59 151.17C59.33 151.25 59.67 151.33 60 151.41C60.08 151.66 60.17 151.92 60.25 152.17C61.58 152.12 62.92 152.06 64.25 152C64.33 151.87 64.42 151.74 64.5 151.62C65.06 151.7 65.63 151.78 66.19 151.86C67.33 151.68 67.42 151.12 67.75 150C71.38 150.73 74.95 151.32 77.75 154C79.33 153.58 80.92 153.17 82.5 152.75C81.85 153.79 80.69 154.51 82 155.08ZM92.6 152.58C92.82 152.56 93.03 152.53 93.25 152.5C93.5 152.92 93.75 153.33 94 153.75C94 154.25 94 154.75 94 155.25C93.83 156.08 93.67 156.92 93.5 157.75C93.64 157.83 93.78 157.92 93.92 158C93.92 158.17 93.92 158.33 93.92 158.5C93.11 160.58 92.31 162.67 91.5 164.75C91.67 165.42 91.83 166.08 92 166.75C92.47 167 92.94 167.25 93.42 167.5C93.53 167.67 93.64 167.83 93.75 168C94.62 167.83 95.48 167.67 96.35 167.5C95.98 168.18 95.62 168.86 95.25 169.55C97.09 169.94 97.77 167.79 99.05 166.93C99.25 168.53 99.45 170.14 99.65 171.75C98.11 172.9 97.33 173.86 95.25 174C91.78 171.82 91.24 166.74 89.58 166C90.06 165.25 90.53 164.5 91 163.75C90.25 163.5 89.5 163.25 88.75 163C88.25 164 87.75 165 87.25 166C86.69 166.02 86.12 166.05 85.56 166.07C87.6 162.12 89.06 156.67 92.98 154.25C92.86 153.69 92.73 153.14 92.6 152.58ZM49.14 163.55C48.92 163.32 48.7 163.09 48.48 162.87C50.91 160.47 56.36 157.32 59.75 157.7C56.21 159.65 52.67 161.6 49.14 163.55ZM82.02 157.75C82.47 159.47 81.22 163.2 80.25 164.5C78.97 162.55 80.06 159 82.02 157.75ZM63.76 162.25C61.6 164.08 59.45 165.92 57.29 167.75C59.45 165.92 61.6 164.08 63.76 162.25ZM84.44 165.08C83.71 166.14 82.97 167.19 82.24 168.25C83.34 167.52 84.45 166.8 85.56 166.07C85.49 166.8 85.42 167.52 85.35 168.25C85.82 168.5 86.28 168.75 86.75 169C87 168.86 87.25 168.72 87.5 168.58C86.73 171.21 83.83 172.83 81.25 173C79.6 171.97 78.64 171.85 78.5 169.75C79.94 168.63 81.54 168.53 81.92 166.5C82.53 166 83.14 165.5 83.75 165C83.98 165.03 84.21 165.06 84.44 165.08ZM54.75 176.65C53.05 178.36 52.7 181 51.09 182.84C49.69 184.43 47.35 184.89 46.2 186.25C50.64 186.86 55.81 181.02 54.75 176.65Z" fill="#feffff" fill-rule="evenodd" stroke="#feffff" stroke-width="0.25" stroke-linejoin="round"/>
<path d="M36.77 10.41C36.6 10.78 36.42 11.14 36.25 11.5C33.8 11.34 33.19 9.39 30.56 10.75C30.2 11.34 29.85 11.94 29.5 12.53C29.25 12.53 29 12.52 28.75 12.52C28.38 8.45 34.34 7.73 36.77 10.41ZM17.29 16.96C17.11 17.31 16.93 17.65 16.75 18C11.27 18.13 13.45 19.23 10.55 22.2C10.35 21.88 10.15 21.57 9.95 21.25C11.47 17.88 13.05 15.67 17.03 16.25C17.12 16.49 17.2 16.72 17.29 16.96ZM52.08 62.81C52.72 63.29 53.36 63.77 54 64.25C54.99 64.1 55.97 63.95 56.96 63.79C57.97 63.81 58.99 63.83 60 63.85C64.11 65.5 65.8 67.39 68.94 70.4C72.21 74.61 77.53 79.27 77.17 85.06C76.85 87.12 76.53 89.19 76.21 91.25C68.35 97.36 63.3 91.58 58.85 85.38C56.28 81.82 53.38 77.89 52.22 73.57C51.63 71.34 51.54 64.93 52.08 62.81ZM36.05 71.42C37.78 73.14 40.12 74.65 41.64 76.59C45.14 81.05 45.9 89.66 44.75 95C45.47 94.98 46.19 94.96 46.92 94.94C46.61 96.55 44.85 96.74 44.06 98.29C42.34 101.65 42.62 105.34 38.97 107.64C37.48 107.84 36.33 109.08 34.57 108.72C23.41 106.42 30.39 93.08 27.85 88.04C27.79 85.81 27.72 83.58 27.66 81.35C28.5 79.48 29.34 77.62 30.17 75.75C30.78 75.03 31.39 74.31 32 73.58C32.19 73.39 32.38 73.19 32.58 73C32.97 72.95 33.36 72.9 33.75 72.85C34.08 71.68 34.42 70.52 34.75 69.35C35 69.98 35.25 70.62 35.5 71.25C35.68 71.31 35.87 71.36 36.05 71.42ZM238.44 137.92C240.44 138.16 240.48 139.07 241.15 140.75C240.93 141.25 240.72 141.75 240.5 142.25C240.33 142.44 240.17 142.63 240 142.83C239.58 142.85 239.17 142.88 238.75 142.91C238.52 141.36 238.29 139.8 238.06 138.25C238.19 138.14 238.32 138.03 238.44 137.92Z" fill="#d3423c" fill-rule="evenodd" stroke="#d3423c" stroke-width="0.25" stroke-linejoin="round"/>
<path d="M121 24.66C121.42 24.75 121.83 24.83 122.25 24.91C124.45 28.63 125.82 34.68 126.02 39C124.53 39.78 125.31 38.4 125.5 37.25C124.23 38.07 124.64 34 120.25 34C117.94 36.85 115.43 37.64 111.97 37.8C112.16 37.62 112.35 37.43 112.54 37.25C112.49 37.01 112.44 36.76 112.38 36.52C112.84 36.51 113.29 36.51 113.75 36.5C113.95 36.31 114.16 36.11 114.36 35.92C115.55 35.53 116.74 35.14 117.94 34.75C117.49 32 117.05 29.25 116.61 26.5C116.66 26.33 116.7 26.17 116.75 26C117.08 25.62 117.42 25.25 117.75 24.87C119.35 25.3 119.3 25.12 120.25 23.85C120.5 24.12 120.75 24.39 121 24.66ZM134.58 29.54C134.72 29.78 134.86 30.01 135 30.25C135 30.92 135 31.58 135 32.25C134.7 32.5 134.4 32.75 134.1 33C133.89 31 133.68 29 133.47 27C133.73 26.83 133.99 26.67 134.25 26.5C134.36 27.51 134.47 28.53 134.58 29.54ZM139.66 27.5C139.94 29.83 140.21 32.17 140.49 34.5C140.33 34.42 140.16 34.33 140 34.25C139.92 33.17 139.83 32.08 139.75 31C139.58 31.33 139.42 31.67 139.25 32C139.14 31.33 139.03 30.67 138.92 30C138.94 29.42 138.97 28.83 139 28.25C138.79 27.92 138.57 27.58 138.36 27.25C138.79 27.33 139.23 27.42 139.66 27.5ZM106.54 29.92C109.76 30.06 109.94 33.72 110.06 36.5C109.54 36.08 109.02 35.67 108.5 35.25C108.33 34.42 108.17 33.58 108 32.75C106.92 32.5 105.83 32.25 104.75 32C104.27 33.18 103.8 34.36 103.32 35.54C103.17 34 103.02 32.46 102.87 30.93C103.33 30.43 103.79 29.94 104.25 29.45C105.01 29.61 105.78 29.76 106.54 29.92ZM139.91 54.74C140.1 55.19 140.29 55.65 140.47 56.1C140.36 56.4 140.26 56.7 140.15 57C139.93 57.25 139.72 57.5 139.5 57.75C139.5 58.15 139.5 58.54 139.5 58.94C139.17 59.38 138.83 59.81 138.5 60.25C138.25 60.83 138 61.42 137.75 62C137.53 61.83 137.31 61.67 137.08 61.5C138.03 59.25 138.97 57 139.91 54.74ZM145.08 54.73C146.7 56.82 148.32 58.91 149.94 61C149.55 61.17 149.15 61.33 148.75 61.5C148.17 60.86 147.58 60.22 147 59.58C146.95 59.44 146.91 59.3 146.86 59.16C146.77 58.94 146.68 58.72 146.58 58.5C146.09 57.97 145.6 57.44 145.12 56.92C144.9 56.36 144.68 55.81 144.46 55.25C144.67 55.08 144.87 54.91 145.08 54.73ZM131.03 58.5C130.73 63.15 130.44 67.8 130.14 72.45C129.92 72.05 129.71 71.65 129.5 71.25C129.47 69.31 129.44 67.37 129.42 65.43C129.69 62.45 129.97 59.48 130.25 56.5C130.51 57.17 130.77 57.83 131.03 58.5ZM142 58.54C142.33 58.56 142.67 58.57 143 58.59C143.5 59.48 144 60.36 144.5 61.25C144.83 61.58 145.17 61.92 145.5 62.25C145.32 62.44 145.15 62.64 144.97 62.83C144.06 62.05 143.16 61.28 142.25 60.5C142.06 60.85 141.87 61.19 141.67 61.54C141.45 60.94 141.22 60.35 141 59.75C141.33 59.35 141.67 58.95 142 58.54ZM114.8 59.93C116.87 61.91 118.95 63.88 121.03 65.86C120.6 66.07 120.18 66.29 119.75 66.5C119.42 65.83 119.08 65.17 118.75 64.5C117.67 63.75 116.58 63 115.5 62.25C115.27 61.48 115.03 60.7 114.8 59.93ZM95.14 61.44C94.17 62.56 93.21 63.68 92.25 64.81C90.81 63.89 89.36 62.97 87.92 62.05C88.19 61.83 88.47 61.62 88.75 61.41C89.92 62.04 91.08 62.68 92.25 63.31C92.92 62.62 93.59 61.94 94.26 61.25C94.55 61.31 94.84 61.38 95.14 61.44ZM87.58 62.05C87.42 65.7 87.26 69.35 87.09 73C86.9 72.92 86.7 72.83 86.5 72.75C86.47 71.48 86.44 70.22 86.42 68.95C86.61 66.23 85.68 63.11 87.25 60.95C87.36 61.31 87.47 61.68 87.58 62.05ZM81.58 70.07C81.31 70.54 81.03 71.02 80.75 71.5C80.25 71.5 79.75 71.5 79.25 71.5C78.71 71 78.17 70.5 77.63 70C76.28 67.92 74.93 65.83 73.59 63.75C74.23 63.91 74.88 64.06 75.53 64.22C76.53 65.68 77.83 69.4 79.75 69.7C79.84 67.97 79.93 66.23 80.02 64.5C80.26 63.83 80.51 63.17 80.75 62.5C81.03 65.02 81.31 67.54 81.58 70.07ZM22.94 75.42C23.54 75.44 24.15 75.47 24.75 75.5C25.14 75.66 25.53 75.82 25.92 75.99C25.19 76.49 24.47 77 23.75 77.5C22.26 76.57 20.88 76.42 20.75 74.7C21.48 74.94 22.21 75.18 22.94 75.42ZM134.17 84.07C134.69 83.97 135.22 83.87 135.75 83.76C135.98 83.84 136.21 83.92 136.44 84C135.86 85.75 135.28 87.5 134.7 89.25C135.78 89.25 136.86 89.25 137.94 89.25C138.09 87.96 137.97 87.91 139.09 87.5C138.98 88.6 138.86 89.7 138.75 90.8C135.89 91.28 133.03 91.77 130.16 92.25C130.11 93 130.06 93.75 130.01 94.5C129.76 95 129.5 95.5 129.25 96C128.68 93.37 127.88 91.62 126 92.25C126.22 88.97 130.26 86.69 132.75 87.35C133.22 86.26 133.69 85.16 134.17 84.07ZM125.77 85.43C125.9 85.87 126.02 86.31 126.15 86.75C125.68 87 125.22 87.25 124.75 87.5C123.42 87.67 122.08 87.83 120.75 88C120.48 87.83 120.21 87.67 119.93 87.5C119.92 87.08 119.91 86.67 119.91 86.25C121.86 85.98 123.82 85.7 125.77 85.43ZM182.58 91.05C182.47 92.95 182.36 94.85 182.25 96.75C182 96.33 181.74 95.92 181.49 95.5C181.72 92.83 181.95 90.17 182.18 87.5C182.65 87.42 183.12 87.33 183.6 87.25C183.4 88.25 183.2 89.25 183 90.25C182.86 90.52 182.72 90.79 182.58 91.05ZM220.56 105.7C220.04 105.88 219.52 106.07 219 106.25C216.35 102.03 211.23 93.74 206.75 91.5C206.25 92.45 206.13 92.98 205.07 92.5C205.46 91.17 205.86 89.83 206.25 88.5C208.42 88.94 209.27 90.98 210.52 92.71C213.71 97.15 217.25 101.34 220.56 105.7ZM21.5 91.1C21.58 91.23 21.67 91.37 21.75 91.5C22.42 91.76 23.08 92.02 23.75 92.28C24.14 92.19 24.53 92.11 24.92 92.02C23.06 93.78 19.78 92.62 19.75 90.11C20.33 90.44 20.92 90.77 21.5 91.1ZM120.48 93C121.07 93.17 121.66 93.33 122.25 93.5C122.25 94 122.25 94.5 122.25 95C121.61 95.58 120.96 96.17 120.32 96.75C120.55 96.99 120.77 97.22 121 97.46C120.37 97.99 119.74 98.52 119.1 99.04C119.02 98.7 118.94 98.37 118.86 98.03C119.4 96.35 119.94 94.68 120.48 93ZM88.58 103C88.56 103.75 88.53 104.5 88.5 105.25C88.25 105.67 88 106.08 87.75 106.5C87.5 106.33 87.25 106.17 87.01 106C87.67 103.67 88.34 101.33 89 99C89.49 98.75 89.98 98.5 90.46 98.25C90.14 98.75 89.82 99.25 89.5 99.75C89.5 100.25 89.5 100.75 89.5 101.25C89.19 101.83 88.89 102.42 88.58 103ZM139 98.08C139.25 98.89 139.5 99.69 139.75 100.5C139.12 100.34 138.68 99.82 138.23 99.7C136.82 99.35 136.65 101.11 135.25 99.5C134.15 99.6 133.06 99.7 131.96 99.8C132.32 99.54 132.68 99.27 133.04 99C133.45 98.83 133.85 98.67 134.25 98.5C135.25 98.33 136.25 98.17 137.25 98C137.83 98.03 138.42 98.06 139 98.08ZM226.43 99.42C226.76 99.53 227.08 99.64 227.4 99.75C227.49 100.25 227.57 100.75 227.65 101.25C226.66 102.14 226.64 101.82 226.5 103.25C226.33 103.92 226.17 104.58 226 105.25C225.86 105.97 225.72 106.69 225.58 107.42C225.56 107.86 225.53 108.31 225.5 108.75C225.08 109.5 224.67 110.25 224.25 111C223.92 110.83 223.58 110.67 223.25 110.5C223.19 110.31 223.14 110.12 223.08 109.93C223.31 109.85 223.53 109.76 223.75 109.68C224.64 106.26 225.54 102.84 226.43 99.42ZM101.08 112.94C100.47 113.46 99.86 113.98 99.25 114.5C98.75 114.5 98.25 114.5 97.75 114.5C97.7 114.31 97.64 114.13 97.59 113.94C98.36 113.38 99.14 112.81 99.91 112.25C98.02 110.06 96.14 107.87 94.25 105.68C93.85 106.9 93.46 108.12 93.06 109.34C92.87 109.31 92.69 109.28 92.5 109.25C92.47 108.49 92.44 107.73 92.42 106.98C92.69 106.15 92.97 105.33 93.25 104.5C96.18 104.7 100.62 110.1 101.08 112.94ZM232.78 105.55C231.91 108.69 231.05 111.82 230.19 114.95C229.96 114.38 229.73 113.82 229.5 113.25C229.83 113.08 230.17 112.92 230.5 112.75C230.17 112.58 229.83 112.42 229.5 112.25C229.81 111.66 230.11 111.07 230.42 110.48C230.78 109.4 231.14 108.33 231.5 107.25C231.75 106.12 232 104.99 232.25 103.86C232.43 104.42 232.6 104.99 232.78 105.55ZM255 110.86C257.25 111.24 259.5 111.62 261.75 112C262.25 111.83 262.75 111.67 263.25 111.5C263.58 111.83 263.92 112.17 264.25 112.5C264.7 112.31 265.15 112.11 265.6 111.92C265.73 111.96 265.87 112 266 112.05C266.19 112.17 266.39 112.29 266.58 112.41C266.65 112.84 266.73 113.27 266.8 113.7C266.77 113.8 266.73 113.9 266.7 114C266.46 114.08 266.23 114.17 266 114.25C266.02 114.82 266.03 115.4 266.05 115.97C265.87 116.06 265.68 116.16 265.5 116.25C265.5 116.75 265.5 117.25 265.5 117.75C265.37 118.53 265.24 119.31 265.11 120.08C264.83 120.18 264.54 120.28 264.25 120.38C262.92 120.02 261.58 119.66 260.25 119.3C260.17 119.04 260.08 118.78 260 118.52C260.33 118.43 260.67 118.34 261 118.25C260.67 118.34 260.33 118.43 260 118.52C259.25 118.61 258.5 118.69 257.75 118.78C257.81 117.43 257.54 117.59 256.25 117.5C256.75 114.53 250.84 113.28 248.75 112.5C249.17 112.28 249.58 112.06 250 111.85C250.08 112.06 250.17 112.28 250.25 112.5C250.17 112.28 250.08 112.06 250 111.85C250.08 111.64 250.17 111.43 250.25 111.21C250.74 111.28 251.23 111.35 251.72 111.42C251.81 111.41 251.91 111.4 252 111.39C253 111.21 254 111.03 255 110.86ZM255 111.86C258 114.08 261 116.29 264 118.5C264.08 118.85 264.17 119.21 264.25 119.56C264.17 119.21 264.08 118.85 264 118.5C263.71 114.94 258.93 113.74 256.75 111.38C256.17 111.54 255.58 111.7 255 111.86C254.5 111.83 254 111.79 253.5 111.75C254 111.79 254.5 111.83 255 111.86ZM116.7 117.79C116.72 118.03 116.73 118.26 116.75 118.5C116.33 119.25 115.92 120 115.5 120.75C115.67 120.86 115.83 120.97 116 121.08C115.92 121.22 115.83 121.36 115.75 121.5C115.08 121.67 114.42 121.83 113.75 122C113.62 121.69 113.48 121.38 113.35 121.06C114.47 119.97 115.58 118.88 116.7 117.79ZM262.25 118.5C262.24 118.58 262.23 118.67 262.22 118.75C262.23 118.75 262.24 118.76 262.25 118.76C262.33 118.76 262.42 118.75 262.5 118.75C262.42 118.67 262.33 118.58 262.25 118.5ZM31.5 130.75C32.23 132.71 32.4 136.08 31.91 138.16C31.73 138.89 30.58 140.25 30.58 140.25C29.86 138.15 29.16 132 31.5 130.75ZM92.69 145.42C92.77 147.21 90 146.72 90 151.25C92.64 150.37 94.23 151.83 95.02 154.75C94.65 155.83 94.29 156.92 93.92 158C93.78 157.92 93.64 157.83 93.5 157.75C93.67 156.92 93.83 156.08 94 155.25C94 154.75 94 154.25 94 153.75C93.75 153.33 93.5 152.92 93.25 152.5C93.03 152.53 92.82 152.56 92.6 152.58C89.22 153.17 86.98 162.08 84.44 165.08C84.21 165.06 83.98 165.03 83.75 165C83.14 165.5 82.53 166 81.92 166.5C80.02 166.25 78.12 166 76.22 165.75C77.34 165.25 78.47 164.75 79.59 164.25C79.06 164.09 78.53 163.93 78 163.77C78.75 161.52 79.5 159.26 80.25 157C80.75 156.67 81.25 156.33 81.75 156C81.83 155.69 81.92 155.39 82 155.08C83.08 154.39 84.17 153.69 85.25 153C85.36 152.67 85.47 152.33 85.58 152C86.06 151.92 86.53 151.83 87 151.75C87.17 150.92 87.33 150.08 87.5 149.25C87.44 149 87.39 148.75 87.33 148.5C88.21 147.73 89.09 146.97 89.97 146.2C90.23 146.3 90.49 146.4 90.75 146.5C91.4 146.14 92.05 145.78 92.69 145.42ZM51.96 149.86C52.39 149.86 52.82 149.87 53.25 149.87C53.31 150.06 53.37 150.25 53.44 150.44C53.04 150.46 52.65 150.48 52.25 150.5C52.15 150.29 52.05 150.07 51.96 149.86ZM50.58 150.59C50.89 150.83 51.19 151.06 51.5 151.3C51.19 151.06 50.89 150.83 50.58 150.59ZM53.44 150.44C54.12 150.58 54.81 150.72 55.5 150.86C54.92 150.87 54.33 150.87 53.75 150.88C53.65 150.73 53.54 150.59 53.44 150.44ZM52 151.28C52.29 151.43 52.57 151.58 52.86 151.73C52.57 151.58 52.29 151.43 52 151.28ZM52.86 151.73C53.24 151.88 53.62 152.03 54 152.18C53.62 152.03 53.24 151.88 52.86 151.73ZM75.08 155.92C75.39 156.19 75.69 156.47 76 156.75C76.03 157.17 76.06 157.58 76.08 158C75.72 158.31 75.36 158.61 75 158.92C74.58 159.11 74.17 159.31 73.75 159.5C73.08 159.5 72.42 159.5 71.75 159.5C71.36 159.67 70.97 159.83 70.58 160C70.56 159.75 70.53 159.5 70.5 159.25C70.75 159 71 158.75 71.25 158.5C72.08 158.33 72.92 158.17 73.75 158C74.5 157.75 75.26 157.5 76.01 157.25C75.48 157 74.95 156.75 74.42 156.5C74.64 156.31 74.86 156.11 75.08 155.92ZM82.02 157.75C80.06 159 78.97 162.55 80.25 164.5C81.22 163.2 82.47 159.47 82.02 157.75ZM41 163.92C40.83 163.92 40.67 163.92 40.5 163.92C40.42 163.59 40.33 163.26 40.25 162.93C39.62 162.95 38.99 162.98 38.36 163C38.56 162.81 38.76 162.61 38.95 162.42C40.52 162.52 42.48 161.3 43.25 162.5C44.63 161.71 44.67 161.03 46 161.25C46.16 162.1 44.76 162.41 45.75 162.87C44.17 163.22 42.58 163.57 41 163.92ZM94.96 163.42C95.42 164.03 95.89 164.64 96.35 165.25C96.63 165.33 96.9 165.42 97.17 165.5C97.33 165.75 97.49 166 97.65 166.25C97.22 166.67 96.78 167.08 96.35 167.5C95.48 167.67 94.62 167.83 93.75 168C93.64 167.83 93.53 167.67 93.42 167.5C93.69 166.87 93.97 166.24 94.25 165.62C94.67 165.33 95.08 165.04 95.5 164.75C95.17 164.42 94.83 164.08 94.5 163.75C94.65 163.64 94.81 163.53 94.96 163.42Z" fill="#b7d3e1" fill-rule="evenodd" stroke="#b7d3e1" stroke-width="0.25" stroke-linejoin="round"/>
<path d="M154.45 21.71C157.63 21.89 160.82 22.07 164 22.25C164.35 22.67 164.7 23.08 165.05 23.5C164.95 24.37 164.85 25.24 164.75 26.11C162.88 26.23 161.01 26.36 159.15 26.49C159.1 26.18 159.05 25.86 159 25.55C160.33 25.45 161.67 25.35 163 25.25C161.58 25.17 160.17 25.08 158.75 25C158.67 25.13 158.58 25.26 158.5 25.38C158.45 25.67 158.4 25.96 158.34 26.25C158.1 26.33 157.86 26.42 157.62 26.5C155.65 22.82 147.45 26.3 146.25 22.5C146 22.83 145.75 23.17 145.51 23.5C145.4 23.08 145.3 22.67 145.2 22.25C147.55 20.84 151.87 21.11 154.45 21.71ZM163.68 22.66C162.29 22.66 160.89 22.66 159.5 22.66C161.15 23.03 162.48 22.52 162.75 24.5C163.06 23.89 163.37 23.27 163.68 22.66ZM146.75 25C146.83 25.08 146.92 25.17 147 25.25C146.92 25.33 146.83 25.42 146.75 25.5C146.67 25.42 146.58 25.33 146.5 25.25C146.58 25.17 146.67 25.08 146.75 25ZM147.75 25C147.92 25 148.08 25 148.25 25C148.42 25 148.58 25 148.75 25C148.83 25.08 148.92 25.17 149 25.25C148.92 25.33 148.83 25.42 148.75 25.5C148.58 25.5 148.42 25.5 148.25 25.5C148.08 25.5 147.92 25.5 147.75 25.5C147.67 25.42 147.58 25.33 147.5 25.25C147.58 25.17 147.67 25.08 147.75 25ZM152.25 25C152.33 25.08 152.42 25.17 152.5 25.25C152.42 25.33 152.33 25.42 152.25 25.5C152.17 25.42 152.08 25.33 152 25.25C152.08 25.17 152.17 25.08 152.25 25ZM163.75 25C163.67 25.08 163.58 25.17 163.5 25.25C163.58 25.33 163.67 25.42 163.75 25.5C163.83 25.42 163.92 25.33 164 25.25C163.92 25.17 163.83 25.08 163.75 25ZM157.56 27C157.62 27.25 157.68 27.5 157.74 27.75C156.14 27.75 154.54 27.75 152.94 27.75C153.12 27.53 153.31 27.31 153.5 27.09C153.75 26.89 154 26.7 154.25 26.5C154.75 26.5 155.25 26.5 155.75 26.5C156.35 26.67 156.95 26.83 157.56 27ZM143.52 52.84C144.04 53.47 144.56 54.1 145.08 54.73C144.87 54.91 144.67 55.08 144.46 55.25C144.68 55.81 144.9 56.36 145.12 56.92C144.49 56.61 143.87 56.31 143.25 56C142.32 56.03 141.4 56.06 140.47 56.1C140.29 55.65 140.1 55.19 139.91 54.74C140.13 54.16 140.34 53.58 140.56 53C140.96 52.83 141.35 52.67 141.75 52.5C142.34 52.61 142.93 52.73 143.52 52.84ZM141.75 53.5C141.67 53.58 141.58 53.67 141.5 53.75C141.58 53.83 141.67 53.92 141.75 54C141.92 53.85 142.08 53.7 142.25 53.55C142.42 53.7 142.58 53.85 142.75 54C142.83 53.92 142.92 53.83 143 53.75C142.92 53.67 142.83 53.58 142.75 53.5C142.58 53.34 142.42 53.18 142.25 53.03C142.08 53.18 141.92 53.34 141.75 53.5ZM140.47 56.1C140.36 56.4 140.26 56.7 140.15 57C140.26 56.7 140.36 56.4 140.47 56.1ZM146.58 58.5C146.68 58.72 146.77 58.94 146.86 59.16C146.77 58.94 146.68 58.72 146.58 58.5ZM146.86 59.16C146.91 59.3 146.95 59.44 147 59.58C146.95 59.44 146.91 59.3 146.86 59.16ZM108.44 79.76C108.97 79.82 109.51 79.89 110.04 79.95C109.94 80.13 109.85 80.32 109.75 80.5C108.98 80.48 108.21 80.46 107.44 80.44C107.53 80.21 107.63 79.98 107.73 79.75C107.97 79.75 108.2 79.75 108.44 79.76ZM107.44 80.44C107.21 80.92 106.98 81.41 106.75 81.89C106.57 81.76 106.38 81.63 106.2 81.5C106.61 81.15 107.02 80.79 107.44 80.44ZM110.53 81.5C110.59 81.67 110.64 81.85 110.69 82.02C110.62 82.34 110.55 82.65 110.48 82.96C110.39 83.14 110.31 83.32 110.22 83.5C109.98 83.76 109.75 84.03 109.51 84.3C109.34 84.37 109.18 84.44 109.01 84.51C108.84 84.59 108.67 84.67 108.5 84.75C108.33 85.25 108.17 85.75 108 86.25C108.17 86.92 108.33 87.58 108.5 88.25C108.67 88.79 108.83 89.32 109 89.86C108.83 89.83 108.67 89.8 108.5 89.77C108.25 89.52 108 89.26 107.75 89C107.58 89.17 107.4 89.33 107.23 89.5C107.02 89.17 106.81 88.83 106.6 88.5C106.65 88.17 106.7 87.83 106.75 87.5C106.63 87.69 106.51 87.87 106.39 88.06C106.1 87.56 105.82 87.06 105.53 86.57C105.66 86.21 105.79 85.86 105.91 85.5C106.28 85.92 106.64 86.33 107 86.75C107.25 85.72 107.5 84.69 107.75 83.67C108.46 83.36 109.17 83.06 109.88 82.75C110.1 82.33 110.31 81.92 110.53 81.5ZM106.06 82C106.23 82.08 106.41 82.17 106.58 82.25C106.41 82.5 106.25 82.75 106.08 83C106 82.83 105.93 82.67 105.85 82.5C105.92 82.33 105.99 82.17 106.06 82ZM105.71 83C105.84 83 105.96 83 106.08 83C105.94 83.17 105.8 83.33 105.66 83.5C105.68 83.33 105.7 83.17 105.71 83ZM112.05 86.54C112.38 86.53 112.71 86.51 113.04 86.5C113.11 86.65 113.19 86.79 113.26 86.94C113.23 87.27 113.21 87.59 113.18 87.92C113.1 88.11 113.02 88.31 112.93 88.5C112.79 88.64 112.64 88.79 112.5 88.93C112.18 89.04 111.87 89.15 111.55 89.26C111.35 88.83 111.16 88.4 110.96 87.97C111.15 87.66 111.34 87.35 111.53 87.04C111.71 86.87 111.88 86.71 112.05 86.54ZM107.75 87.5C107.67 87.58 107.58 87.67 107.5 87.75C107.5 87.92 107.5 88.08 107.5 88.25C107.58 88.33 107.67 88.42 107.75 88.5C107.83 88.42 107.92 88.33 108 88.25C108 88.08 108 87.92 108 87.75C107.92 87.67 107.83 87.58 107.75 87.5ZM112.25 87.5C112.17 87.58 112.08 87.67 112 87.75C112.08 87.83 112.17 87.92 112.25 88C112.33 87.92 112.42 87.83 112.5 87.75C112.42 87.67 112.33 87.58 112.25 87.5ZM111.39 89.5C111.35 89.59 111.3 89.67 111.25 89.76C110.83 89.79 110.42 89.82 110 89.84C110.08 89.73 110.17 89.61 110.25 89.5C110.63 89.5 111.01 89.5 111.39 89.5ZM118 98.17C118.29 98.13 118.58 98.08 118.86 98.03C118.94 98.37 119.02 98.7 119.1 99.04C118.68 100.03 118.25 101.01 117.82 102C117.21 102.42 116.61 102.83 116 103.25C116.21 102.25 116.42 101.25 116.64 100.25C117.88 99.65 117.98 99.62 118 98.17ZM265 110.94C264.67 111.04 264.33 111.15 264 111.25C264.53 111.47 265.07 111.69 265.6 111.92C265.15 112.11 264.7 112.31 264.25 112.5C263.92 112.17 263.58 111.83 263.25 111.5C262.75 111.67 262.25 111.83 261.75 112C259.5 111.62 257.25 111.24 255 110.86C254.92 110.74 254.83 110.62 254.75 110.5C253.33 110.53 251.92 110.56 250.5 110.58C249.74 107.62 264.34 113.09 262.25 110C263.17 110.31 264.08 110.63 265 110.94ZM251.72 111.42C251.81 111.41 251.91 111.4 252 111.39C251.91 111.4 251.81 111.41 251.72 111.42ZM255 111.86C254.5 111.83 254 111.79 253.5 111.75C254 111.79 254.5 111.83 255 111.86ZM250 111.85C250.08 112.06 250.17 112.28 250.25 112.5C250.17 112.28 250.08 112.06 250 111.85ZM255 111.86C255.58 111.7 256.17 111.54 256.75 111.38C258.93 113.74 263.71 114.94 264 118.5C261 116.29 258 114.08 255 111.86ZM266 112.05C266.19 112.17 266.39 112.29 266.58 112.41C266.39 112.29 266.19 112.17 266 112.05ZM266.58 112.41C266.71 112.53 266.84 112.64 266.97 112.75C266.91 113.07 266.86 113.38 266.8 113.7C266.73 113.27 266.65 112.84 266.58 112.41ZM266.7 114C266.48 114.66 266.26 115.31 266.05 115.97C266.03 115.4 266.02 114.82 266 114.25C266.23 114.17 266.46 114.08 266.7 114ZM266.05 115.97C265.74 117.34 265.43 118.71 265.11 120.08C265.24 119.31 265.37 118.53 265.5 117.75C265.5 117.25 265.5 116.75 265.5 116.25C265.68 116.16 265.87 116.06 266.05 115.97ZM260 118.52C260.33 118.43 260.67 118.34 261 118.25C260.67 118.34 260.33 118.43 260 118.52ZM262.25 118.5C262.33 118.58 262.42 118.67 262.5 118.75C262.42 118.75 262.33 118.76 262.25 118.76C262.24 118.76 262.23 118.75 262.22 118.75C262.23 118.67 262.24 118.58 262.25 118.5ZM264 118.5C264.08 118.85 264.17 119.21 264.25 119.56C264.17 119.21 264.08 118.85 264 118.5ZM41.11 144.88C41.29 145.05 41.46 145.23 41.63 145.41C41.46 145.23 41.29 145.05 41.11 144.88ZM87.33 148.5C87.39 148.75 87.44 149 87.5 149.25C87.33 150.08 87.17 150.92 87 151.75C86.53 151.83 86.06 151.92 85.58 152C85.22 151.58 84.86 151.17 84.5 150.75C84.83 150.58 85.17 150.42 85.5 150.25C85.5 150.01 85.5 149.77 85.5 149.53C86.11 149.19 86.72 148.84 87.33 148.5ZM51.96 149.86C52.05 150.07 52.15 150.29 52.25 150.5C52.65 150.48 53.04 150.46 53.44 150.44C53.54 150.59 53.65 150.73 53.75 150.88C54.33 150.87 54.92 150.87 55.5 150.86C56.67 150.97 57.83 151.07 59 151.17C58.92 151.48 58.83 151.78 58.75 152.09C57.42 151.89 56.08 151.7 54.75 151.5C54.67 151.71 54.58 151.91 54.5 152.12C54.33 152.14 54.17 152.16 54 152.18C53.62 152.03 53.24 151.88 52.86 151.73C52.57 151.58 52.29 151.43 52 151.28C51.83 151.29 51.67 151.29 51.5 151.3C51.19 151.06 50.89 150.83 50.58 150.59C50.64 150.23 50.69 149.88 50.75 149.52C51.15 149.64 51.55 149.75 51.96 149.86ZM60 151.41C61.5 151.48 63 151.55 64.5 151.62C64.42 151.74 64.33 151.87 64.25 152C62.92 152.06 61.58 152.12 60.25 152.17C60.17 151.92 60.08 151.66 60 151.41ZM68.5 152.97C67.17 152.97 65.83 152.97 64.5 152.96C64.58 152.81 64.67 152.65 64.75 152.5C65.92 152.45 67.08 152.39 68.25 152.34C68.33 152.55 68.42 152.76 68.5 152.97ZM72.12 153.89C71.91 153.89 71.71 153.9 71.5 153.9C71.71 153.9 71.91 153.89 72.12 153.89ZM72.12 153.89C72.11 154.09 72.1 154.3 72.09 154.5C72.1 154.3 72.11 154.09 72.12 153.89ZM28.62 155C28.75 155.25 28.87 155.5 29 155.75C28.87 155.83 28.74 155.92 28.61 156C28.61 155.67 28.62 155.33 28.62 155ZM32 157.09C32.03 157.25 32.06 157.4 32.08 157.55C32.02 157.7 31.95 157.85 31.88 158C31.76 158.17 31.64 158.34 31.52 158.51C31.19 158.34 30.86 158.17 30.53 158C30.66 157.84 30.79 157.69 30.92 157.53C31.28 157.39 31.64 157.24 32 157.09ZM30 160.03C29.83 160.19 29.67 160.34 29.5 160.49C29.67 160.34 29.83 160.19 30 160.03ZM46.54 165.5C46.53 165.6 46.51 165.71 46.5 165.81C46.51 165.71 46.53 165.6 46.54 165.5ZM38.05 180.5C38.35 180.58 38.64 180.67 38.94 180.75C39.29 181.42 39.65 182.08 40 182.75C39.67 182.92 39.33 183.08 39 183.25C39.17 183.75 39.33 184.25 39.5 184.75C39.33 184.86 39.17 184.97 39 185.08C38.62 184.81 38.23 184.53 37.85 184.25C37.92 183 37.98 181.75 38.05 180.5Z" fill="#dce9ef" fill-rule="evenodd" stroke="#dce9ef" stroke-width="0.25" stroke-linejoin="round"/>
</svg>