<?xml version="1.0" encoding="UTF-8"?>
<svg xmlns="http://www.w3.org/2000/svg" viewBox="0 0 387 386" width="387" height="386">
<path d="M376 385.92C375.5 385.92 375 385.92 374.49 385.92C375.38 384.88 376.92 384.59 378.12 383.86C380.96 382.13 383.65 379.26 384.87 376.15C387.66 369 386.06 359.34 386.06 351.75C386.06 334.58 386.06 317.42 386.06 300.25C386.06 230.92 386.06 161.58 386.06 92.25C386.06 71.08 386.06 49.92 386.06 28.75C386.06 20.31 387.32 9.6 378.85 4.42C371.74 0.07 358.45 1.94 350.25 1.94C328.08 1.94 305.92 1.94 283.75 1.94C222.75 1.94 161.75 1.94 100.75 1.94C81.42 1.94 62.08 1.94 42.75 1.94C35.13 1.94 21.78 0.68 14.82 2.16C2.55 4.76 1.94 15.54 1.94 25.75C1.94 47.08 1.94 68.42 1.94 89.75C1.94 160.25 1.94 230.75 1.94 301.25C1.94 318.42 1.94 335.58 1.94 352.75C1.94 360.02 0.24 369.73 3.28 376.48C4.92 380.13 7.95 382.99 11.57 384.68C12.5 385.12 13.26 385.16 13.97 385.92C13.48 385.92 12.99 385.92 12.5 385.92C-1.65 378.05 1.5 370.07 1.5 355.25C1.5 340.42 1.5 325.58 1.5 310.75C1.5 235.75 1.5 160.75 1.5 85.75C1.5 65.25 1.5 44.75 1.5 24.25C1.5 21.07 0.61 16.37 1.59 13.34C3.21 8.37 8.45 2.58 13.77 1.52C19.82 0.3 34.31 1.5 41.25 1.5C60.75 1.5 80.25 1.5 99.75 1.5C160.92 1.5 222.08 1.5 283.25 1.5C305.58 1.5 327.92 1.5 350.25 1.5C358.75 1.5 372.34 -0.43 379.48 3.77C380.13 4.15 380.34 4.91 380.84 5.41C387.84 12.26 386.5 17.82 386.5 27.25C386.5 47.25 386.5 67.25 386.5 87.25C386.5 161.92 386.5 236.58 386.5 311.25C386.5 326.42 386.5 341.58 386.5 356.75C386.5 370.24 389.1 378.64 376 385.92ZM337.16 330.54C335.59 329.9 333.22 333.64 331.82 334.75C331.9 335.06 331.98 335.37 332.06 335.68C326.75 342.46 318.07 347.61 310.86 352.12C276.36 373.7 239.8 370 200.75 370C152.72 370 108.24 376.28 67.54 345.71C42.75 327.1 26.9 300.55 20.2 270.64C17.62 259.14 18 246.96 18 235.25C18 219.75 18 204.25 18 188.75C18 167.06 16.28 144.54 19.26 123.02C22.83 97.24 35.4 73.33 53.41 54.65C71.78 35.61 96.78 23.37 122.72 19.33C143.22 16.13 166.88 18 187.75 18C202.08 18 216.42 18 230.75 18C243.97 18 257.17 17.76 270.23 20.12C297.83 25.12 323.86 40.8 341.78 62.47C356.03 79.69 365.12 100.57 368.74 122.52C370.5 133.27 370 144.41 370 155.25C370 170.58 370 185.92 370 201.25C370 237.11 373.67 275.55 354.14 307.38C349.41 315.07 344.43 324.89 337.16 330.54ZM136.82 119.23C132.12 119.43 127.51 120.24 123.17 121.88C109.17 127.14 99.61 139.03 97.17 153.8C96.16 159.89 96.88 166.59 96.88 172.75C96.88 182.42 96.88 192.08 96.88 201.75C96.88 216.32 94.35 233.29 101.06 246.7C112.28 269.14 132.39 268.82 154.25 268.82C180.92 268.82 207.58 268.82 234.25 268.82C251.04 268.82 267.27 269.46 279.87 256.63C294.42 241.82 291.14 220.29 291.14 201.25C291.14 190.42 291.14 179.58 291.14 168.75C291.14 159.14 291.38 149.66 286.79 140.93C274.94 118.4 255.03 119.2 232.75 119.2C211.58 119.2 190.42 119.2 169.25 119.2C158.47 119.2 147.59 118.77 136.82 119.23ZM166.41 163.57C187.21 172.63 208.02 181.69 228.82 190.75C228.11 192.78 216.75 198.14 214.14 199.39C202.83 204.81 192.15 211.56 180.96 217.23C176.52 219.48 171.36 223.83 166.41 224.37C166.41 204.1 166.41 183.84 166.41 163.57Z" fill="#000000" fill-rule="evenodd" stroke="#000000" stroke-width="0.25" stroke-linejoin="round"/>
<path d="M374.49 385.92C254.32 385.92 134.15 385.92 13.97 385.92C13.26 385.16 12.5 385.12 11.57 384.68C7.95 382.99 4.92 380.13 3.28 376.48C0.24 369.73 1.94 360.02 1.94 352.75C1.94 335.58 1.94 318.42 1.94 301.25C1.94 230.75 1.94 160.25 1.94 89.75C1.94 68.42 1.94 47.08 1.94 25.75C1.94 15.54 2.55 4.76 14.82 2.16C21.78 0.68 35.13 1.94 42.75 1.94C62.08 1.94 81.42 1.94 100.75 1.94C161.75 1.94 222.75 1.94 283.75 1.94C305.92 1.94 328.08 1.94 350.25 1.94C358.45 1.94 371.74 0.07 378.85 4.42C387.32 9.6 386.06 20.31 386.06 28.75C386.06 49.92 386.06 71.08 386.06 92.25C386.06 161.58 386.06 230.92 386.06 300.25C386.06 317.42 386.06 334.58 386.06 351.75C386.06 359.34 387.66 369 384.87 376.15C383.65 379.26 380.96 382.13 378.12 383.86C376.92 384.59 375.38 384.88 374.49 385.92ZM332.06 335.68C333.76 333.97 335.46 332.25 337.16 330.54C344.43 324.89 349.41 315.07 354.14 307.38C373.67 275.55 370 237.11 370 201.25C370 185.92 370 170.58 370 155.25C370 144.41 370.5 133.27 368.74 122.52C365.12 100.57 356.03 79.69 341.78 62.47C323.86 40.8 297.83 25.12 270.23 20.12C257.17 17.76 243.97 18 230.75 18C216.42 18 202.08 18 187.75 18C166.88 18 143.22 16.13 122.72 19.33C96.78 23.37 71.78 35.61 53.41 54.65C35.4 73.33 22.83 97.24 19.26 123.02C16.28 144.54 18 167.06 18 188.75C18 204.25 18 219.75 18 235.25C18 246.96 17.62 259.14 20.2 270.64C26.9 300.55 42.75 327.1 67.54 345.71C108.24 376.28 152.72 370 200.75 370C239.8 370 276.36 373.7 310.86 352.12C318.07 347.61 326.75 342.46 332.06 335.68ZM136.82 119.23C147.59 118.77 158.47 119.2 169.25 119.2C190.42 119.2 211.58 119.2 232.75 119.2C255.03 119.2 274.94 118.4 286.79 140.93C291.38 149.66 291.14 159.14 291.14 168.75C291.14 179.58 291.14 190.42 291.14 201.25C291.14 220.29 294.42 241.82 279.87 256.63C267.27 269.46 251.04 268.82 234.25 268.82C207.58 268.82 180.92 268.82 154.25 268.82C132.39 268.82 112.28 269.14 101.06 246.7C94.35 233.29 96.88 216.32 96.88 201.75C96.88 192.08 96.88 182.42 96.88 172.75C96.88 166.59 96.16 159.89 97.17 153.8C99.61 139.03 109.17 127.14 123.17 121.88C127.51 120.24 132.12 119.43 136.82 119.23ZM166.41 163.57C166.41 183.84 166.41 204.1 166.41 224.37C171.36 223.83 176.52 219.48 180.96 217.23C192.15 211.56 202.83 204.81 214.14 199.39C216.75 198.14 228.11 192.78 228.82 190.75C208.02 181.69 187.21 172.63 166.41 163.57Z" fill="#ffffff" fill-rule="evenodd" stroke="#ffffff" stroke-width="0.25" stroke-linejoin="round"/>
<path d="M0.13 0.13C129.04 0.13 257.96 0.13 386.88 0.13C386.88 128.71 386.88 257.29 386.88 385.88C383.25 385.89 379.63 385.9 376 385.92C389.1 378.64 386.5 370.24 386.5 356.75C386.5 341.58 386.5 326.42 386.5 311.25C386.5 236.58 386.5 161.92 386.5 87.25C386.5 67.25 386.5 47.25 386.5 27.25C386.5 17.82 387.84 12.26 380.84 5.41C380.34 4.91 380.13 4.15 379.48 3.77C372.34 -0.43 358.75 1.5 350.25 1.5C327.92 1.5 305.58 1.5 283.25 1.5C222.08 1.5 160.92 1.5 99.75 1.5C80.25 1.5 60.75 1.5 41.25 1.5C34.31 1.5 19.82 0.3 13.77 1.52C8.45 2.58 3.21 8.37 1.59 13.34C0.61 16.37 1.5 21.07 1.5 24.25C1.5 44.75 1.5 65.25 1.5 85.75C1.5 160.75 1.5 235.75 1.5 310.75C1.5 325.58 1.5 340.42 1.5 355.25C1.5 370.07 -1.65 378.05 12.5 385.92C8.38 385.9 4.25 385.89 0.13 385.88C0.13 257.29 0.13 128.71 0.13 0.13ZM337.16 330.54C335.46 332.25 333.76 333.97 332.06 335.68C331.98 335.37 331.9 335.06 331.82 334.75C333.22 333.64 335.59 329.9 337.16 330.54Z" fill="#1a1a1a" fill-rule="evenodd" stroke="#1a1a1a" stroke-width="0.25" stroke-linejoin="round"/>
</svg>